<svg xmlns="http://www.w3.org/2000/svg" viewBox="0 0 30.35 27.94"><defs><style>.cls-1{fill:none;}.cls-2{fill:#000d22;}</style></defs><g id="레이어_2" data-name="레이어 2"><g id="레이어_1-2" data-name="레이어 1"><path class="cls-1" d="M27.94,6.18A6.16,6.16,0,0,0,17.22,2L0,19.24v8.7H8.7L25.92,10.72A6.1,6.1,0,0,0,27.94,6.18Z"/><path class="cls-2" d="M21.76,1.5A4.59,4.59,0,0,0,18.33,3l0,0,0,0L1.5,19.86v6.58H8.08L24.86,9.66l0,0,0,0a4.59,4.59,0,0,0,1.53-3.43A4.69,4.69,0,0,0,21.76,1.5m0-1.5a6.18,6.18,0,0,1,6.18,6.18,6.12,6.12,0,0,1-2,4.54L8.7,27.94H0v-8.7L17.22,2A6.12,6.12,0,0,1,21.76,0Z"/><rect class="cls-2" x="19.67" y="1.37" width="1.5" height="12.3" transform="translate(0.66 16.64) rotate(-45)"/><rect class="cls-2" x="14.4" y="26.24" width="15.95" height="1.5"/></g></g></svg>