<svg xmlns="http://www.w3.org/2000/svg" viewBox="0 0 32.32 42.73"><defs><style>.cls-1{fill:#000d22;}.cls-2{fill:#fff;}</style></defs><g id="레이어_2" data-name="레이어 2"><g id="레이어_1-2" data-name="레이어 1"><path class="cls-1" d="M16.16,0h0a4.66,4.66,0,0,1,4.66,4.66V35.85a0,0,0,0,1,0,0H11.5a0,0,0,0,1,0,0V4.66A4.66,4.66,0,0,1,16.16,0Z"/><circle class="cls-2" cx="16.16" cy="17.84" r="15.16"/><path class="cls-1" d="M16.16,34A16.17,16.17,0,1,1,32.32,17.84,16.19,16.19,0,0,1,16.16,34Zm0-30.33A14.17,14.17,0,1,0,30.32,17.84,14.17,14.17,0,0,0,16.16,3.68Z"/><circle class="cls-2" cx="16.16" cy="17.84" r="7.39"/><path class="cls-1" d="M16.16,26.23a8.39,8.39,0,1,1,8.39-8.39A8.4,8.4,0,0,1,16.16,26.23Zm0-14.77a6.39,6.39,0,1,0,6.39,6.38A6.39,6.39,0,0,0,16.16,11.46Z"/><circle class="cls-1" cx="16.16" cy="17.84" r="5.22"/><path class="cls-2" d="M11.5,35.85s-8.18,1.42-10,5.88H30.79c-1.79-4.46-10-5.88-10-5.88Z"/><path class="cls-1" d="M30.79,42.73H1.54a1,1,0,0,1-.83-.44,1,1,0,0,1-.1-.93c2-4.93,10.36-6.43,10.72-6.5H21c.36.07,8.76,1.57,10.73,6.5a1,1,0,0,1-.1.93A1,1,0,0,1,30.79,42.73Zm-27.45-2H29c-2.06-2.3-6.4-3.54-8.24-3.88H11.59C9.74,37.19,5.41,38.43,3.34,40.73Z"/><circle class="cls-2" cx="14.63" cy="16.4" r="1.44"/></g></g></svg>