<svg xmlns="http://www.w3.org/2000/svg" viewBox="0 0 43.29 43.29"><defs><style>.cls-1{fill:#000d22;}</style></defs><g id="레이어_2" data-name="레이어 2"><g id="레이어_1-2" data-name="레이어 1"><path class="cls-1" d="M21.43,13.73a7.91,7.91,0,0,0-6.92,11.35l.64,1.1a7.92,7.92,0,1,0,6.7-12.45Z"/><path class="cls-1" d="M11.8,20.43a9.92,9.92,0,0,1,9.49-8.69H40.88A21.64,21.64,0,0,0,4.67,8.22Z"/><path class="cls-1" d="M27.61,13.73A9.88,9.88,0,0,1,29.8,27.28h0l-9.36,16c.39,0,.79,0,1.19,0A21.64,21.64,0,0,0,41.79,13.73Z"/><path class="cls-1" d="M25.41,30.82a9.89,9.89,0,0,1-11.93-3.54h0v0a9.13,9.13,0,0,1-.71-1.21L3.4,10A21.64,21.64,0,0,0,18.26,43Z"/></g></g></svg>