<svg xmlns="http://www.w3.org/2000/svg" viewBox="0 0 37.64 45.18"><defs><style>.cls-1{fill:#000d22;}</style></defs><g id="레이어_2" data-name="레이어 2"><g id="레이어_1-2" data-name="레이어 1"><path class="cls-1" d="M25.59,45.18c-1.23,0-2.34,0-2.91-.09-1.15-.14-3-2.42-7.12-7.82-.72-1-1.36-1.8-1.83-2.39A3,3,0,0,1,13.18,32,2.33,2.33,0,0,1,15,30.22c2.33-.37,5.34,3.54,5.92,4.33a.75.75,0,0,1-1.21.89c-1.18-1.61-3.42-3.9-4.48-3.74-.25,0-.46.31-.63.8a1.56,1.56,0,0,0,.3,1.44c.47.6,1.12,1.46,1.86,2.43,1.69,2.25,5.22,6.92,6.14,7.24,1.34.16,6.56,0,7.64,0,.58-.37,2.68-1.85,3-4.06s.64-7.12.77-9.09a2,2,0,0,0-.61-1.63,1.18,1.18,0,0,0-1.52-.14L32,33a.78.78,0,0,1-.77.73.75.75,0,0,1-.73-.77l.13-4.73a.75.75,0,0,1,.32-.59,2.75,2.75,0,0,1,3.69,0,3.47,3.47,0,0,1,1.11,2.86c-.14,2-.48,6.85-.79,9.18C34.56,43,31.27,44.92,31.13,45a.79.79,0,0,1-.34.1C30.62,45.1,27.91,45.18,25.59,45.18Z"/><path class="cls-1" d="M27.67,33.48a.75.75,0,0,1-.75-.75V26.85a.77.77,0,0,1,.39-.66,3.61,3.61,0,0,1,3-.39,3.2,3.2,0,0,1,1.79,1.74.76.76,0,0,1-.42,1,.75.75,0,0,1-1-.42,1.79,1.79,0,0,0-.92-.9,1.9,1.9,0,0,0-1.38.13v5.4A.75.75,0,0,1,27.67,33.48Z"/><path class="cls-1" d="M24.06,33.48a.74.74,0,0,1-.75-.75V26.08a.74.74,0,0,1,.37-.64,3.21,3.21,0,0,1,4.64,1,.75.75,0,0,1-1.3.74,1.68,1.68,0,0,0-2.21-.69v6.19A.75.75,0,0,1,24.06,33.48Z"/><path class="cls-1" d="M20.31,35.74a.75.75,0,0,1-.75-.75V18.93a2.47,2.47,0,0,1,2.63-2.52,2.6,2.6,0,0,1,2.62,2.91V27a.75.75,0,0,1-1.5,0V19.32c0-1.41-.85-1.41-1.12-1.41-1,0-1.13.64-1.13,1V35A.74.74,0,0,1,20.31,35.74Z"/><path class="cls-1" d="M9.9,35.28a.69.69,0,0,1-.37-.1,18.82,18.82,0,1,1,27.7-12.49c-.11.52-.23,1-.38,1.51a.75.75,0,1,1-1.44-.43c.14-.45.25-.91.35-1.39a17.31,17.31,0,1,0-25.49,11.5.74.74,0,0,1,.28,1A.76.76,0,0,1,9.9,35.28Z"/><path class="cls-1" d="M19.25,15.89a.75.75,0,0,1-.57-.25l-3.55-4.06a.76.76,0,0,1,.07-1.06.75.75,0,0,1,1.06.07l3.55,4.06a.75.75,0,0,1-.07,1.06A.76.76,0,0,1,19.25,15.89Z"/><path class="cls-1" d="M21.42,14.65a.75.75,0,0,1-.75-.75l0-5.39a.76.76,0,0,1,.75-.76h0a.75.75,0,0,1,.75.75l0,5.4a.76.76,0,0,1-.75.75Z"/><path class="cls-1" d="M17.69,17.91h-.1l-5.35-.73a.75.75,0,1,1,.21-1.49l5.34.74a.75.75,0,0,1-.1,1.49Z"/></g></g></svg>