<svg xmlns="http://www.w3.org/2000/svg" viewBox="0 0 40 40"><defs><style>.cls-1{fill:#e4e8ef;}.cls-2{fill:#c3c9d2;}</style></defs><g id="레이어_2" data-name="레이어 2"><g id="레이어_1-2" data-name="레이어 1"><g id="그룹_2104" data-name="그룹 2104"><circle id="타원_2511-2" data-name="타원 2511-2" class="cls-1" cx="20" cy="20" r="20"/><path id="패스_1207" data-name="패스 1207" class="cls-2" d="M21.8,14.67v0a.72.72,0,0,1,0-.19,1.69,1.69,0,0,1,1.31-1.2h0a2.73,2.73,0,0,1,.5,0h1.74V10.1C25,10,24.23,10,23.64,9.9a9.58,9.58,0,0,0-1.93,0,5.25,5.25,0,0,0-1.17.28l-.34.14h0a4,4,0,0,0-1.93,2,3.52,3.52,0,0,0-.22.62,7.2,7.2,0,0,0-.24,1.6v3h-3.2v3.65h3.2v9h3.94V21.18h2.94l.56-3.64h-3.5V15.35A3.82,3.82,0,0,1,21.8,14.67Z"/></g></g></g></svg>