<svg xmlns="http://www.w3.org/2000/svg" viewBox="0 0 489.7 271.69"><defs><style>.cls-1,.cls-8{fill:#e4e8ef;}.cls-2{fill:#c3c9d2;}.cls-3{fill:#a4acb8;}.cls-13,.cls-4{fill:#fff;}.cls-5{fill:#28cbd1;}.cls-10,.cls-11,.cls-12,.cls-6,.cls-9{fill:none;}.cls-6{stroke:#c3c9d2;}.cls-10,.cls-11,.cls-12,.cls-13,.cls-6{stroke-miterlimit:10;}.cls-7{fill:#2c82ff;}.cls-8{opacity:0.8;}.cls-8,.cls-9{isolation:isolate;}.cls-10,.cls-9{stroke:#a4acb8;}.cls-11,.cls-12,.cls-9{stroke-linecap:round;}.cls-9{stroke-linejoin:round;opacity:0.4;}.cls-13,.cls-9{stroke-width:2px;}.cls-10,.cls-11{stroke-width:6px;}.cls-11,.cls-12{stroke:#fff;}.cls-12{stroke-width:4px;}.cls-13{stroke:#0cc;}.cls-14{fill:#0cc;}</style></defs><g id="레이어_2" data-name="레이어 2"><g id="레이어_1-2" data-name="레이어 1"><g id="그룹_2587" data-name="그룹 2587"><rect id="사각형_5622" data-name="사각형 5622" class="cls-1" x="368.1" y="2.49" width="12.01" height="12.01" transform="translate(103.57 267.02) rotate(-45)"/><g id="그룹_2586" data-name="그룹 2586"><path id="사각형_5582" data-name="사각형 5582" class="cls-1" d="M33.3,36.82h94.53V271.19H37.3a4,4,0,0,1-4-4V36.82Z"/><path id="사각형_5583" data-name="사각형 5583" class="cls-2" d="M37.3,25.7H413.59a4,4,0,0,1,4,4v7.12H33.3V29.7A4,4,0,0,1,37.3,25.7Z"/><rect id="사각형_5584" data-name="사각형 5584" class="cls-2" x="33.3" y="36.82" width="94.53" height="46.22"/><rect id="사각형_5585" data-name="사각형 5585" class="cls-2" x="143.94" y="49.42" width="191.53" height="111.14"/><path id="사각형_5586" data-name="사각형 5586" class="cls-2" d="M49.47,98.54h62.18a2,2,0,0,1,2,2h0a2,2,0,0,1-2,2H49.47a2,2,0,0,1-2-2h0A2,2,0,0,1,49.47,98.54Z"/><path id="사각형_5587" data-name="사각형 5587" class="cls-1" d="M49.47,53.68h62.18a2,2,0,0,1,2,2h0a2,2,0,0,1-2,2H49.47a2,2,0,0,1-2-2h0A2,2,0,0,1,49.47,53.68Z"/><path id="사각형_5588" data-name="사각형 5588" class="cls-1" d="M49.47,66.14H85.56a2,2,0,0,1,2,2h0a2,2,0,0,1-2,2H49.47a2,2,0,0,1-2-2h0A2,2,0,0,1,49.47,66.14Z"/><rect id="사각형_5589" data-name="사각형 5589" class="cls-3" x="33.3" y="83.04" width="94.53" height="1.97"/><rect id="사각형_5590" data-name="사각형 5590" class="cls-3" x="33.3" y="36.82" width="94.53" height="1.97"/><rect id="사각형_5591" data-name="사각형 5591" class="cls-2" x="33.3" y="116.01" width="94.53" height="1.97"/><path id="사각형_5592" data-name="사각형 5592" class="cls-2" d="M49.47,131.51h62.18a2,2,0,0,1,2,2h0a2,2,0,0,1-2,2H49.47a2,2,0,0,1-2-2h0A2,2,0,0,1,49.47,131.51Z"/><rect id="사각형_5593" data-name="사각형 5593" class="cls-2" x="33.3" y="148.98" width="94.53" height="1.97"/><rect id="사각형_5594" data-name="사각형 5594" class="cls-4" x="143.94" y="174.39" width="155.22" height="81.13"/><rect id="사각형_5595" data-name="사각형 5595" class="cls-4" x="312.69" y="174.39" width="81.13" height="81.13"/><rect id="사각형_5596" data-name="사각형 5596" class="cls-4" x="335.47" y="49.42" width="58.35" height="111.14"/><path id="사각형_5597" data-name="사각형 5597" class="cls-5" d="M157.22,217.63h119a2,2,0,0,1,2,2h0a2,2,0,0,1-2,2h-119a2,2,0,0,1-2-2h0A2,2,0,0,1,157.22,217.63Z"/><path id="사각형_5598" data-name="사각형 5598" class="cls-1" d="M157.81,194.06h30.06a2.57,2.57,0,0,1,2.57,2.57h0a2.57,2.57,0,0,1-2.57,2.57H157.81a2.57,2.57,0,0,1-2.56-2.57h0A2.57,2.57,0,0,1,157.81,194.06Z"/><path id="사각형_5599" data-name="사각형 5599" class="cls-1" d="M330,185.34h46.44a2,2,0,0,1,2,2h0a2,2,0,0,1-2,2H330a2,2,0,0,1-2-2h0A2,2,0,0,1,330,185.34Z"/><rect id="사각형_5600" data-name="사각형 5600" class="cls-1" x="340.55" y="194.42" width="25.4" height="1.97" rx="0.99"/><rect id="사각형_5601" data-name="사각형 5601" class="cls-1" x="335.47" y="90.79" width="58.35" height="1.97"/><rect id="사각형_5602" data-name="사각형 5602" class="cls-1" x="335.47" y="109.59" width="58.35" height="1.97"/><rect id="사각형_5603" data-name="사각형 5603" class="cls-1" x="335.47" y="128.39" width="58.35" height="1.97"/><rect id="사각형_5604" data-name="사각형 5604" class="cls-1" x="335.47" y="147.19" width="58.35" height="1.97"/><rect id="사각형_5605" data-name="사각형 5605" class="cls-3" x="143.94" y="160.56" width="191.53" height="2.57"/><rect id="사각형_5606" data-name="사각형 5606" class="cls-2" x="335.47" y="160.56" width="58.35" height="2.57"/><rect id="사각형_5607" data-name="사각형 5607" class="cls-3" x="143.94" y="160.56" width="150.09" height="2.57"/><rect id="사각형_5608" data-name="사각형 5608" class="cls-2" x="143.94" y="255.52" width="155.22" height="2.57"/><rect id="사각형_5609" data-name="사각형 5609" class="cls-2" x="312.69" y="255.52" width="81.13" height="2.57"/><path id="사각형_5610" data-name="사각형 5610" class="cls-1" d="M157.22,227.41H231a2,2,0,0,1,2,2h0a2,2,0,0,1-2,2H157.22a2,2,0,0,1-2-2h0A2,2,0,0,1,157.22,227.41Z"/><path id="사각형_5611" data-name="사각형 5611" class="cls-1" d="M168.44,237.25h70.12a2,2,0,0,1,2,2h0a2,2,0,0,1-2,2H168.44a2,2,0,0,1-2-2h0A2,2,0,0,1,168.44,237.25Z"/><rect id="사각형_5612" data-name="사각형 5612" class="cls-1" x="352.96" y="60.16" width="23.37" height="15.97"/><path id="패스_1953" data-name="패스 1953" class="cls-1" d="M365.46,76.13l-2.23,5.46,8.32-5.46-3.63-4.24Z"/><path id="사각형_5613" data-name="사각형 5613" class="cls-1" d="M345.3,99.55H384a1.63,1.63,0,0,1,1.62,1.62h0a1.62,1.62,0,0,1-1.62,1.62H345.3a1.62,1.62,0,0,1-1.62-1.62h0A1.63,1.63,0,0,1,345.3,99.55Z"/><path id="사각형_5614" data-name="사각형 5614" class="cls-1" d="M345.3,118.36H384a1.62,1.62,0,0,1,1.62,1.61h0a1.62,1.62,0,0,1-1.62,1.62H345.3a1.62,1.62,0,0,1-1.62-1.62h0A1.62,1.62,0,0,1,345.3,118.36Z"/><rect id="사각형_5615" data-name="사각형 5615" class="cls-6" x="33.3" y="25.7" width="384.29" height="245.49" rx="4"/><path id="사각형_5616" data-name="사각형 5616" class="cls-1" d="M345.3,137.16H384a1.62,1.62,0,0,1,1.62,1.62h0a1.62,1.62,0,0,1-1.62,1.61H345.3a1.62,1.62,0,0,1-1.62-1.61h0A1.62,1.62,0,0,1,345.3,137.16Z"/><circle id="타원_3116" data-name="타원 3116" class="cls-7" cx="353.25" cy="216.25" r="6.51"/><path id="사각형_5617" data-name="사각형 5617" class="cls-7" d="M347,225.16h12.51a6.44,6.44,0,0,1,6.44,6.45h0v9.59h-25.4v-9.59a6.45,6.45,0,0,1,6.45-6.45Z"/><circle id="타원_3117" data-name="타원 3117" class="cls-4" cx="239.71" cy="91.21" r="25.08"/><path id="사각형_5618" data-name="사각형 5618" class="cls-4" d="M233.47,121.81h12.47a38.75,38.75,0,0,1,38.75,38.75h-90A38.74,38.74,0,0,1,233.47,121.81Z"/><circle id="타원_3118" data-name="타원 3118" class="cls-8" cx="239.71" cy="104.99" r="32.55"/><path id="패스_1954" data-name="패스 1954" class="cls-2" d="M252.54,104.57l-18.89-10.9a.48.48,0,0,0-.65.18.39.39,0,0,0-.06.24v21.8a.47.47,0,0,0,.47.48.4.4,0,0,0,.24-.07l18.89-10.9a.46.46,0,0,0,.17-.65A.58.58,0,0,0,252.54,104.57Z"/><path id="패스_1955" data-name="패스 1955" class="cls-9" d="M373.74,237.43H415.8c9.13,0,16.54-6.21,16.54-13.87V202.84"/><circle id="타원_3119" data-name="타원 3119" class="cls-7" cx="432.33" cy="202.84" r="4.36"/><rect id="사각형_5619" data-name="사각형 5619" class="cls-7" x="376.33" y="116.98" width="113.36" height="78.32"/><circle id="타원_3120" data-name="타원 3120" class="cls-10" cx="407.28" cy="146.7" r="12.9"/><path id="패스_1956" data-name="패스 1956" class="cls-11" d="M419,141.18A12.9,12.9,0,1,1,401.77,135a13.09,13.09,0,0,1,2.91-1"/><rect id="사각형_5620" data-name="사각형 5620" class="cls-4" x="393.17" y="169.78" width="78.32" height="1.97" rx="0.99"/><rect id="사각형_5621" data-name="사각형 5621" class="cls-4" x="416.25" y="177.77" width="55.25" height="1.97" rx="0.99"/><circle id="타원_3121" data-name="타원 3121" class="cls-4" cx="48.55" cy="31.26" r="1.98"/><circle id="타원_3122" data-name="타원 3122" class="cls-4" cx="56.7" cy="31.26" r="1.98"/><circle id="타원_3123" data-name="타원 3123" class="cls-4" cx="64.85" cy="31.26" r="1.98"/><path id="패스_1957" data-name="패스 1957" class="cls-9" d="M147.42,219.6H64.22a15.07,15.07,0,0,1-15.07-15.07V166.2"/><circle id="타원_3124" data-name="타원 3124" class="cls-5" cx="49.15" cy="166.2" r="4.36"/><g id="그룹_2585" data-name="그룹 2585"><circle id="타원_3125" data-name="타원 3125" class="cls-5" cx="49.15" cy="115.96" r="41.87"/><path id="패스_1958" data-name="패스 1958" class="cls-12" d="M23.83,139.45A34.54,34.54,0,0,1,68.17,87.13"/><path id="패스_1959" data-name="패스 1959" class="cls-4" d="M63.41,95.94l-12.93,12-.33,5.48,3.71-4.24-3,4.74L56,112.06,64.3,96.63a.57.57,0,0,0-.89-.69Z"/><circle id="타원_3126" data-name="타원 3126" class="cls-13" cx="49.15" cy="115.96" r="9.62"/><circle id="타원_3127" data-name="타원 3127" class="cls-14" cx="49.15" cy="115.96" r="2.78"/><circle id="타원_3128" data-name="타원 3128" class="cls-4" cx="74.47" cy="139.45" r="1.77"/><circle id="타원_3129" data-name="타원 3129" class="cls-4" cx="79.4" cy="132.62" r="1.77"/><circle id="타원_3130" data-name="타원 3130" class="cls-4" cx="82.53" cy="124.81" r="1.77"/><circle id="타원_3131" data-name="타원 3131" class="cls-4" cx="83.68" cy="116.47" r="1.77"/><circle id="타원_3132" data-name="타원 3132" class="cls-4" cx="82.78" cy="108.1" r="1.77"/><circle id="타원_3133" data-name="타원 3133" class="cls-4" cx="79.88" cy="100.2" r="1.77"/><circle id="타원_3134" data-name="타원 3134" class="cls-4" cx="75.15" cy="93.24" r="1.77"/></g></g><ellipse id="타원_3135" data-name="타원 3135" class="cls-1" cx="7" cy="245.69" rx="7" ry="6.5"/></g></g></g></svg>