<svg xmlns="http://www.w3.org/2000/svg" viewBox="0 0 40 40"><defs><style>.cls-1{fill:#e4e8ef;}.cls-2{fill:#c3c9d2;}</style></defs><g id="레이어_2" data-name="레이어 2"><g id="레이어_1-2" data-name="레이어 1"><g id="그룹_2105" data-name="그룹 2105"><g id="그룹_2103" data-name="그룹 2103"><circle id="타원_2472" data-name="타원 2472" class="cls-1" cx="20" cy="20" r="20"/><path id="패스_1208" data-name="패스 1208" class="cls-2" d="M24.8,8.46H15.05A6.66,6.66,0,0,0,8.4,15.12v9.74a6.66,6.66,0,0,0,6.65,6.66H24.8a6.66,6.66,0,0,0,6.65-6.66V15.12A6.66,6.66,0,0,0,24.8,8.46ZM29.33,25a4.42,4.42,0,0,1-4.42,4.42h-10A4.42,4.42,0,0,1,10.52,25v-10a4.42,4.42,0,0,1,4.42-4.42h10a4.42,4.42,0,0,1,4.42,4.42Z"/><path id="패스_1209" data-name="패스 1209" class="cls-2" d="M19.92,13.93A6.12,6.12,0,1,0,26,20.05a6.12,6.12,0,0,0-6.11-6.12Zm0,10.08a4,4,0,1,1,4-4,3.95,3.95,0,0,1-4,4Z"/><circle id="타원_2473" data-name="타원 2473" class="cls-2" cx="26.15" cy="13.79" r="1.42"/></g></g></g></g></svg>