<svg xmlns="http://www.w3.org/2000/svg" viewBox="0 0 40.91 32.54"><defs><style>.cls-1{fill:#000d22;}</style></defs><g id="레이어_2" data-name="레이어 2"><g id="레이어_1-2" data-name="레이어 1"><path class="cls-1" d="M40.16,0h-18a.76.76,0,0,0-.75.75V5.91H.75A.76.76,0,0,0,0,6.66V31.79a.76.76,0,0,0,.75.75h35.9a.75.75,0,0,0,.75-.75V13h2.76a.75.75,0,0,0,.75-.75V.75A.76.76,0,0,0,40.16,0ZM9.25,7.51a.69.69,0,1,1-.69.68A.69.69,0,0,1,9.25,7.51Zm-2.64,0a.69.69,0,1,1-.68.68A.69.69,0,0,1,6.61,7.51ZM4,7.51a.69.69,0,1,1-.68.68A.68.68,0,0,1,4,7.51ZM14.22,31c.13-3.72,2.12-6.79,4.48-6.79s4.36,3.07,4.49,6.79Zm1.33-11.45a3.16,3.16,0,1,1,3.15,3.16A3.15,3.15,0,0,1,15.55,19.59ZM35.9,31H24.68c-.1-3.35-1.51-6.2-3.51-7.52a4.65,4.65,0,1,0-4.94,0c-2,1.32-3.41,4.17-3.51,7.52H1.5V10.49H21.42V12.2a.75.75,0,0,0,.75.75h2.72v3.41a.75.75,0,0,0,.48.7.65.65,0,0,0,.27.05.76.76,0,0,0,.56-.24L29.75,13H35.9Zm3.51-19.59h-10a.77.77,0,0,0-.56.25l-2.47,2.72V12.2a.75.75,0,0,0-.75-.75H22.92V1.5H39.41Z"/><path class="cls-1" d="M26.65,6.13h9.16a.75.75,0,0,0,0-1.5H26.65a.75.75,0,0,0,0,1.5Z"/><path class="cls-1" d="M26.65,8.87h9.16a.75.75,0,1,0,0-1.5H26.65a.75.75,0,0,0,0,1.5Z"/></g></g></svg>