<svg xmlns="http://www.w3.org/2000/svg" viewBox="0 0 386.61 272.14"><defs><style>.cls-1{fill:#eceef0;}.cls-2,.cls-9{fill:#a4acb8;}.cls-2{opacity:0.2;}.cls-2,.cls-24,.cls-38,.cls-4{isolation:isolate;}.cls-3{fill:#c3c9d2;}.cls-18,.cls-4{fill:#fff;}.cls-4{opacity:0.5;}.cls-5{fill:#16808e;}.cls-6{fill:#4099a0;}.cls-7{fill:#11a49c;}.cls-8{fill:#48afaf;}.cls-10{fill:#348da5;}.cls-11{fill:#61bfce;}.cls-12{fill:#4dabc1;}.cls-13{fill:#fa2b3b;}.cls-14{fill:#0a022b;}.cls-15{fill:#e50c2b;}.cls-16{fill:#fec5a8;}.cls-17{fill:#ff706b;}.cls-19{fill:#b2d6fa;}.cls-20{fill:#b2b2b2;}.cls-21{fill:#1e3ebb;}.cls-22{fill:#e2e2e2;}.cls-23{fill:#1c0956;}.cls-24{fill:#fcf738;opacity:0.32;}.cls-25{fill:#07215b;}.cls-26{fill:#10316b;}.cls-27{fill:#1c8da0;}.cls-28{fill:#06a2a1;}.cls-29{fill:#969fac;}.cls-30{fill:#f9aa2b;}.cls-31{fill:#fcc96d;}.cls-32{fill:#2c82ff;}.cls-33{fill:#070d3a;}.cls-34{fill:#e555a1;}.cls-35{fill:#526dba;}.cls-36,.cls-38{opacity:0.4;}.cls-37,.cls-38{fill:#afd5ff;}.cls-39{fill:none;}</style></defs><g id="레이어_2" data-name="레이어 2"><g id="레이어_1-2" data-name="레이어 1"><g id="그룹_2571" data-name="그룹 2571"><circle id="타원_3136" data-name="타원 3136" class="cls-1" cx="165.52" cy="95" r="95"/><circle id="타원_3137" data-name="타원 3137" class="cls-1" cx="349.52" cy="113" r="11"/><circle id="타원_3138" data-name="타원 3138" class="cls-1" cx="24.52" cy="105" r="4"/><g id="그룹_2144" data-name="그룹 2144"><rect id="사각형_5623" data-name="사각형 5623" class="cls-1" x="266.02" y="46.76" width="13" height="13" transform="translate(42.16 208.3) rotate(-45)"/><path id="합치기_25" data-name="합치기 25" class="cls-2" d="M63.89,261.77c-3.79,1.74-11.33,2.93-20,2.93-12.49,0-22.62-2.46-22.62-5.49s10.13-5.48,22.62-5.48c8.69,0,16.24,1.19,20,2.93,11.56-5.91,62.51-10.37,123.62-10.37,57.51,0,106,4,121.18,9.34,7-2.39,20.71-4,36.51-4,22.86,0,41.4,3.39,41.4,7.6s-18.53,7.6-41.4,7.6c-15.8,0-29.54-1.63-36.51-4-15.15,5.4-63.67,9.34-121.18,9.34C126.41,272.14,75.45,267.68,63.89,261.77Z"/><circle id="타원_2946" data-name="타원 2946" class="cls-1" cx="207.75" cy="111.22" r="21.65"/><path id="패스_1610" data-name="패스 1610" class="cls-3" d="M62.89,219.58,61.73,216H28.06l-3.21,3.27.45,5.93h0L26,234h0l1.95,25.52H59.83l2.63-34.28h0Z"/><path id="패스_1611" data-name="패스 1611" class="cls-4" d="M135,122.56c2.72,5.32,9,14.58,22.66,23.64,13.65-9.06,19.94-18.32,22.66-23.64a17.13,17.13,0,0,0,1.81-8.38,137.82,137.82,0,0,0-2.61-21.32A18.2,18.2,0,0,0,172,89.58c-2.36-.42-4.78-.75-7-1a1.62,1.62,0,0,1,.1.18,10.08,10.08,0,0,1,1.73,6,5.88,5.88,0,0,1-3.36,5.44,19.5,19.5,0,0,1-11.52,0,5.87,5.87,0,0,1-3.37-5.44,10.08,10.08,0,0,1,1.73-6l.15-.25c-2.39.25-5.07.6-7.67,1.07a18,18,0,0,0-6.83,2.77,138.15,138.15,0,0,0-2.73,21.83A17.14,17.14,0,0,0,135,122.56Z"/><path id="패스_1612" data-name="패스 1612" class="cls-5" d="M44.37,109s-1.94-13.51,9.47-13.15c8.41.26,7.27-2.26,12.16-7.2,4.66-4.7,11.2-1.57,12.6,1.22s-1,9.15,4.71,12c6.44,3.23,7.08,8.29,3.59,13.64s4.42,7.22,4.3,14.9-10,14.2-10,16.42,2.91,21.24,2.91,21.24L68.68,191.5s1.57-1.86-3.2,1.51-15.36,18.51-15.36,18.51L29.29,162.29s7.56-9.49,9.31-15.08-4.66-13-4-19.38,8.07-9.51,9-13.15A21.52,21.52,0,0,0,44.37,109Z"/><g id="그룹_2130" data-name="그룹 2130"><path id="패스_1613" data-name="패스 1613" class="cls-6" d="M47.41,188.08h0a.33.33,0,0,1-.32-.35h0c2.25-45.36,24.82-98.82,25-99.36a.34.34,0,0,1,.44-.17h0a.33.33,0,0,1,.17.43h0c-.23.53-22.76,53.88-25,99.12A.34.34,0,0,1,47.41,188.08Z"/><path id="패스_1614" data-name="패스 1614" class="cls-6" d="M58.28,129.53a.32.32,0,0,1-.24-.11.31.31,0,0,1,0-.46h0c.13-.11,12.78-11.43,24.87-15a.33.33,0,0,1,.19.64c-12,3.54-24.49,14.76-24.61,14.88A.36.36,0,0,1,58.28,129.53Z"/><path id="패스_1615" data-name="패스 1615" class="cls-6" d="M58.29,129.94a.34.34,0,0,1-.34-.32c-.69-19.28-7.55-30.45-7.62-30.56a.34.34,0,0,1,.11-.46h0a.33.33,0,0,1,.46.11c.07.11,7,11.41,7.72,30.89a.33.33,0,0,1-.32.34Z"/><path id="패스_1616" data-name="패스 1616" class="cls-6" d="M52.42,151.93l-.14-.37c-4.23-11.77-16.27-24-16.4-24.1a.33.33,0,0,1,.47-.47c.12.12,12,12.18,16.42,24,2-1.16,12.56-7,21.44-9.22a.33.33,0,0,1,.4.24.32.32,0,0,1-.24.4c-9.73,2.4-21.5,9.28-21.61,9.35Z"/><path id="패스_1617" data-name="패스 1617" class="cls-6" d="M48,179.81a.33.33,0,0,1-.21-.59,79.06,79.06,0,0,1,13.94-8.83.35.35,0,0,1,.44.16A.33.33,0,0,1,62,171a79.08,79.08,0,0,0-13.81,8.74A.3.3,0,0,1,48,179.81Z"/></g><path id="패스_1618" data-name="패스 1618" class="cls-7" d="M6.86,131c3.75-2.7,6,0,8.37,1.68S19,136,23,135.07s6.93-.89,8.09,5.05c.95,4.85,4.77,10.12,8.15,10.12s3.14,7.92,3.14,9.37-.87,8.62,3.37,11.06a9.14,9.14,0,0,1,4.37,10.92c-1.28,4-2.56,9.21.93,11.72s.23,14.43-2.5,18.68-14.2-1.63-14.2-1.63-11-3-9.57-10.14c1-5.1-3.2-7-5.61-7.81-4-1.36-5.11-3.56-4.84-9,.2-4.19-3.7-6.68-6.31-8.89a8.2,8.2,0,0,1-1.94-9.39c1.45-2.85.06-7.5-3.14-10s-4.18-8.72-1.12-11C8.09,139.33,1.43,134.92,6.86,131Z"/><rect id="사각형_4982" data-name="사각형 4982" class="cls-3" x="312.28" y="237.01" width="65.86" height="4.81"/><g id="그룹_2131" data-name="그룹 2131"><path id="패스_1619" data-name="패스 1619" class="cls-8" d="M43.41,215.31a.31.31,0,0,1-.32-.27C37,178.92,7.8,132.81,7.5,132.35a.34.34,0,0,1,.1-.46h0a.34.34,0,0,1,.46.1c.3.46,29.59,46.68,35.68,82.93a.34.34,0,0,1-.27.39Z"/><path id="패스_1620" data-name="패스 1620" class="cls-8" d="M24,161.58a.33.33,0,0,1-.33-.29c-1.45-11.63,1.19-24.2,1.21-24.33a.35.35,0,0,1,.4-.26.33.33,0,0,1,.25.4c0,.13-2.64,12.59-1.2,24.1a.32.32,0,0,1-.28.37H24Z"/><path id="패스_1621" data-name="패스 1621" class="cls-8" d="M22.36,158.36a.42.42,0,0,1-.15,0c-4.92-2.44-16.32-5.36-16.43-5.39a.33.33,0,0,1-.24-.4.33.33,0,0,1,.4-.24h0c.11,0,11.58,3,16.57,5.44a.33.33,0,0,1,.15.44A.37.37,0,0,1,22.36,158.36Z"/><path id="패스_1622" data-name="패스 1622" class="cls-8" d="M31,176.48h-.06a.33.33,0,0,1-.27-.39h0c1.44-8.38,9.39-20.82,9.47-21a.32.32,0,0,1,.45-.1h0a.34.34,0,0,1,.11.46h0c-.07.12-7.94,12.45-9.36,20.71A.34.34,0,0,1,31,176.48Z"/><path id="패스_1623" data-name="패스 1623" class="cls-8" d="M29.94,174.15l-.12,0C23.56,171.76,8.27,171,8.12,171a.33.33,0,0,1-.32-.35h0a.34.34,0,0,1,.34-.32h0c.63,0,15.55.74,21.91,3.14a.34.34,0,0,1-.12.65Z"/><path id="패스_1624" data-name="패스 1624" class="cls-8" d="M38,194.61h0a.34.34,0,0,1-.3-.36c.65-7.3,7.92-17.85,8.23-18.3a.33.33,0,0,1,.46-.08.32.32,0,0,1,.08.46c-.07.11-7.47,10.85-8.1,18A.34.34,0,0,1,38,194.61Z"/><path id="패스_1625" data-name="패스 1625" class="cls-8" d="M37.54,193.2l-.12,0c-7.1-2.86-21.17-5.3-21.31-5.32a.35.35,0,0,1-.28-.39.34.34,0,0,1,.39-.27h0c.14,0,14.29,2.48,21.44,5.36a.33.33,0,0,1,.19.43A.33.33,0,0,1,37.54,193.2Z"/></g><rect id="사각형_4983" data-name="사각형 4983" class="cls-3" x="312.28" y="193.9" width="65.86" height="22.19"/><rect id="사각형_4984" data-name="사각형 4984" class="cls-9" x="312.28" y="199.5" width="5.32" height="60"/><path id="패스_1626" data-name="패스 1626" class="cls-9" d="M307.13,255.53,307,255l-7.11-25.44.06-6.42H80.75l.07,6.42L73.7,255l-.16.56q0,.3-.06.6a3.37,3.37,0,0,0,3.37,3.38h0a3.37,3.37,0,0,0,3-1.93l.2-.55L90.24,229.3H290.43L300.58,257l.2.55a3.37,3.37,0,0,0,6.41-1.44h0A3.05,3.05,0,0,0,307.13,255.53Z"/><path id="패스_1627" data-name="패스 1627" class="cls-10" d="M281.76,170.52H211.85a62.76,62.76,0,0,1-22-26v.6a62.92,62.92,0,0,1-21.73,25.38H98.21a62.76,62.76,0,0,1-22-26V205H303.49V145.13A62.82,62.82,0,0,1,281.76,170.52Z"/><path id="패스_1628" data-name="패스 1628" class="cls-11" d="M133,125.47a112.87,112.87,0,0,0,42.18-8.12H90.85A112.88,112.88,0,0,0,133,125.47Z"/><path id="패스_1629" data-name="패스 1629" class="cls-12" d="M133.17,181.21a62.55,62.55,0,0,0,56.68-36.07V131.08a13.73,13.73,0,0,0-13.72-13.73h-.91a113.64,113.64,0,0,1-84.37,0h-.91a13.73,13.73,0,0,0-13.72,13.73v13.46A62.56,62.56,0,0,0,133.17,181.21Z"/><path id="패스_1630" data-name="패스 1630" class="cls-13" d="M201.22,98.62c-.83-6.79-4.74-10.14-6.78-12.59-.54-1.78.22-4.52.61-5.92l.07-.27c.35-1.27,1.85-7.69-2.88-9.23a20.35,20.35,0,0,1-5.88-3.36,9.61,9.61,0,0,1-2.08-2.54c-1.33-2.56-.91-7.41-1.14-11.33h0c0-.74-.43-7.32-4.32-11.14l-.18-.18c-4-4-5.85-5.76-13.1-6.7-5.76-.75-10.69,2.29-13.39,4.46-1.27.7-2.63,1.53-4.2,2.5s-3,1.78-4.07,2.42c-2.89,1.37-9.47,4.88-11,9a12.08,12.08,0,0,0,2.37,12.81,5.71,5.71,0,0,1,1.48,2.06c0,.08,0,.16,0,.25a12.43,12.43,0,0,1-2.08,4.77l-.35.33c-2.13,2-5.05,4.82-5.37,7.86-.34,3.3,1.78,4.7,3.49,5.82l.65.44c0,.12,0,.25,0,.4.05,3.18-3.91,6.82-3.82,10s2.31,6.55,3.62,7.33a.09.09,0,0,0,.07,0L180,109h0a11,11,0,0,0,11.09,2.93C194.76,110.71,202.27,107.18,201.22,98.62ZM133.51,54c.81-2.19,3.2-4.24,5.64-5.85a23.48,23.48,0,0,0-2.34,2.93c-2,2.79-3.48,5.31-3.13,9.72.29,3.65,2.51,4.08,3,6.38a9.68,9.68,0,0,0-.95-1.07A11.39,11.39,0,0,1,133.51,54Zm-.74,33.12c-1.64-1.08-3.5-2.3-3.2-5.2.22-2,1.77-4,3.4-5.7a13.74,13.74,0,0,0-2.34,5.09c-.6,4.13,1.39,4.18,2.16,5.82Zm34.17-50c-4.91-.43-8-.14-10.84.85a15.64,15.64,0,0,1,9.37-2c7,.91,8.81,2.67,12.72,6.51l.19.18a12.89,12.89,0,0,1,2.93,4.83c-2.89-3.92-9.92-10-14.37-10.4Zm26.59,36.34a8.91,8.91,0,0,0-2.4-2.57q.45.18.9.33c4.16,1.35,2.77,7.25,2.45,8.42l-.07.27a17.14,17.14,0,0,0-.82,4.93,3.24,3.24,0,0,1-.27-.6c-.92-2.7,1.87-7.72.22-10.78Z"/><path id="패스_1631" data-name="패스 1631" class="cls-11" d="M246.67,125.47a113,113,0,0,0,42.19-8.12H204.48A113,113,0,0,0,246.67,125.47Z"/><path id="패스_1632" data-name="패스 1632" class="cls-12" d="M246.81,181.21a62.57,62.57,0,0,0,56.68-36.07V131.08a13.73,13.73,0,0,0-13.72-13.73h-.91a113.61,113.61,0,0,1-84.37,0h-.91a13.73,13.73,0,0,0-13.73,13.73v13.46A62.59,62.59,0,0,0,246.81,181.21Z"/><path id="패스_1633" data-name="패스 1633" class="cls-12" d="M320.43,168.15c-.16-.79-2.3-10.45-10.17-10.45-8.21,0-12.1,9.14-12.1,16.3s-1.07,12.15-2.8,15.34c-.89,1.65-6.6,15.06-35.5,15.06h-139c-28.9,0-34.61-13.41-35.5-15.06-1.73-3.19-2.8-8.18-2.8-15.34s-3.9-16.3-12.1-16.3c-7.88,0-10,9.66-10.18,10.45a65.47,65.47,0,0,0-.44,7.54,64,64,0,0,0,21,47.42H299.93a64.24,64.24,0,0,0,20.5-55Z"/><path id="패스_1634" data-name="패스 1634" class="cls-12" d="M189.22,184.16c2.38,5.75,12.52,16,54.83,16,36.92,0,48.53-9.24,52.07-16a394.52,394.52,0,0,0-106.9,0Z"/><path id="패스_1635" data-name="패스 1635" class="cls-11" d="M273.66,177.75a162.73,162.73,0,0,0-71.51,2.2q-6.63,1.73-13,4a2.44,2.44,0,0,0,.1.24,394.92,394.92,0,0,1,106.9,0l.13-.26A160.15,160.15,0,0,0,273.66,177.75Z"/><path id="패스_1636" data-name="패스 1636" class="cls-12" d="M85.05,184.16c2.38,5.75,12.52,16,54.84,16,36.91,0,48.52-9.24,52.07-16a394.33,394.33,0,0,0-106.91,0Z"/><path id="패스_1637" data-name="패스 1637" class="cls-11" d="M169.5,177.75A162.55,162.55,0,0,0,98,180q-6.63,1.73-13,4l.1.24a394.25,394.25,0,0,1,106.9,0l.14-.26A160.89,160.89,0,0,0,169.5,177.75Z"/><path id="패스_1638" data-name="패스 1638" class="cls-14" d="M136,174.94l37.87-1.16-3.38,9.49-24.85,3.84H134.76Z"/><path id="패스_1639" data-name="패스 1639" class="cls-15" d="M168.51,62.57s2.93.43,4.75.9c2.87.74,4.49,6.66,3.89,9.39-.45,2-1.07,6.73.45,9.68s6.66,6.44,8.29,9.37c1.35,2.43,5.76,11.81,0,12.55s-44.1-.61-46.94-4.26-3.11-8-.92-10.68a33,33,0,0,0,5.27-10.74c1-4-.2-7.78-.77-11.72-.63-4.42-.26-7.49,1.1-8.74C144.67,57.34,168.51,62.57,168.51,62.57Z"/><path id="패스_1640" data-name="패스 1640" class="cls-16" d="M165.06,88.76l-.11-.18c-2.17-3.44-1.57-8.42-1.57-8.42H151.94s.59,4.9-1.53,8.35l-.15.25a10.07,10.07,0,0,0-1.72,6,5.88,5.88,0,0,0,3.36,5.44,19.5,19.5,0,0,0,11.52,0,5.86,5.86,0,0,0,3.36-5.44A10.07,10.07,0,0,0,165.06,88.76Z"/><path id="패스_1641" data-name="패스 1641" class="cls-17" d="M157.66,87.54a8.68,8.68,0,0,0,6-2.39,17.39,17.39,0,0,1-.25-5H151.94a17.39,17.39,0,0,1-.25,5A8.68,8.68,0,0,0,157.66,87.54Z"/><path id="패스_1642" data-name="패스 1642" class="cls-16" d="M150.39,51.41a85.37,85.37,0,0,1-6.8,6.92c-.17,4.43.12,11.87,3.25,17.25,4.75,8.17,9.92,8.43,10.82,8.43s6.07-.26,10.82-8.43a22.79,22.79,0,0,0,2.4-6.43,33.9,33.9,0,0,0-2.37-6.57A32.86,32.86,0,0,1,150.39,51.41Z"/><path id="패스_1643" data-name="패스 1643" class="cls-18" d="M199.74,126.61a212.68,212.68,0,0,0-15.75-29,18.5,18.5,0,0,0-4.47-4.74,138.78,138.78,0,0,1,2.62,21.31,17.25,17.25,0,0,1-1.82,8.38c-.19.37-.4.77-.63,1.18,1.08,2.65,2.5,6.52,4,11.75l-26.14,17.35v.4l-.3-.2-.3.2v-.4l-26.15-17.35A123.17,123.17,0,0,1,135.21,123c-.07-.13-.14-.26-.2-.39a17.14,17.14,0,0,1-1.82-8.38,138.3,138.3,0,0,1,2.73-21.83,18.48,18.48,0,0,0-5.2,5.26,212.74,212.74,0,0,0-15.76,29,26.92,26.92,0,0,0,1.76,25.45A61.35,61.35,0,0,0,147,176.81a3.48,3.48,0,0,0,1.28.21l6.5-.18a3.33,3.33,0,0,0,2.55-1.32,3.31,3.31,0,0,0,2.54,1.32l6.5.18a3.44,3.44,0,0,0,1.28-.21A61.31,61.31,0,0,0,198,152.06,26.89,26.89,0,0,0,199.74,126.61Z"/><path id="패스_1644" data-name="패스 1644" class="cls-19" d="M182.36,123.83v0h0a16.08,16.08,0,0,0,.56-5.48c-.08-2.6-1.23-10.75-1.23-10.75l-5.17-2.79,3.16,19,.68,1.73s1.85,5.26,1.29,3.43.52-4.59.7-5.05Z"/><path id="패스_1645" data-name="패스 1645" class="cls-19" d="M133.71,106.72s-1.25,8.14-1.33,10.75c0,1.13-.08,2.42,0,3.6h0s.15,1.76.32,4.27c0,.73-.17,3.27-.17,3.27l.67-.78,0,.1c-.22.72-.06.36.22-.33h0c.4-1,1-2.7,1.14-2.95h0l.68-1.74,3.17-19Z"/><path id="패스_1646" data-name="패스 1646" class="cls-18" d="M181.7,107.56h0l1-8.25-3.18-6.44A18,18,0,0,0,172,89.58c-2.36-.42-4.79-.75-7-1l.1.18a10.08,10.08,0,0,1,1.73,6,5.88,5.88,0,0,1-3.36,5.44,19.54,19.54,0,0,1-11.53,0,5.88,5.88,0,0,1-3.36-5.44,10.08,10.08,0,0,1,1.73-6l.15-.25c-2.39.26-5.07.6-7.67,1.07a18.16,18.16,0,0,0-6.84,2.77l-5,7.68,2.77,6.69h0c-.24,2.39-.43,4.91-.52,7.46a17,17,0,0,0,1.82,8.38c2.71,5.32,9,14.58,22.65,23.64,13.66-9.06,19.94-18.32,22.66-23.64a17,17,0,0,0,1.82-8.38C182.06,111.93,181.9,109.7,181.7,107.56Z"/><path id="패스_1647" data-name="패스 1647" class="cls-20" d="M192,127.9a2.45,2.45,0,0,0-2.17-1.32H124.49a2.45,2.45,0,0,0-2.17,1.32l-.38.71h70.44Z"/><path id="패스_1648" data-name="패스 1648" class="cls-21" d="M118.47,188.62c0-5.07,6.36-5.18,8.18-5.11a61.61,61.61,0,0,1-7.29-.83c-17.89-4.5-15.88,13.86-1.09,14.11,3.53.07,7.13,0,10.74-.2C123.72,196.56,118.47,194.5,118.47,188.62Z"/><path id="패스_1649" data-name="패스 1649" class="cls-22" d="M157.16,127.22H123.89a2.07,2.07,0,0,0-2.06,2.07c0,.06,0,.12,0,.18L126,175.15a2.07,2.07,0,0,0,2.06,1.87h58.14a2.07,2.07,0,0,0,2.06-1.87l4.19-45.68a2.07,2.07,0,0,0-1.86-2.24H157.16Z"/><path id="패스_1650" data-name="패스 1650" class="cls-23" d="M208.12,170.74c-.46-6.46-5-9.79-9.6-9.56-7,.35-16,5.47-22.33,8.67s-23,13-29.11,14.13l2.72,10.46c19.63-2.91,36.32-7.64,40.27-9.14C196.06,183,208.59,177.2,208.12,170.74Z"/><path id="패스_1651" data-name="패스 1651" class="cls-20" d="M155.75,147.75a4,4,0,1,0,5.4,3.73h0v-.07a4,4,0,0,1-5.4-3.66Z"/><path id="패스_1652" data-name="패스 1652" class="cls-24" d="M147.05,184c-2.67.48-13,.09-20.4-.48-1.82-.07-8.18,0-8.18,5.11,0,5.88,5.25,7.94,10.54,8,7-.37,14.07-1.15,20.79-2.14L147.08,184Z"/><path id="패스_1653" data-name="패스 1653" class="cls-16" d="M147.05,184c-2.67.48-13,.09-20.4-.48-1.82-.07-8.18,0-8.18,5.11,0,5.88,5.25,7.94,10.54,8,7-.37,14.07-1.15,20.79-2.14L147.08,184Z"/><path id="패스_1654" data-name="패스 1654" class="cls-21" d="M164.16,242.25c2.91,2.59,2.37,6.72-3.47,8.2-3.45.87-6.36-1.77-8.17-4.08.8,1.21,1.53,2.3,2.17,3.22C169.94,271.53,185.71,251.53,164.16,242.25Z"/><path id="패스_1655" data-name="패스 1655" class="cls-23" d="M144.44,192.85c-1.42-7-3.5-17.56-7.55-23.24-2.68-3.78-8.09-5.25-13.45-1.61s-2,17.56-.09,23.69c2.63,8.64,10.55,23.65,18.13,36.68l10-5.26C149.38,216.7,145.81,199.59,144.44,192.85Z"/><path id="패스_1656" data-name="패스 1656" class="cls-24" d="M160.69,250.45c5.84-1.48,6.38-5.61,3.47-8.2l-.7-.29c-6.57-2.66-7.86-6.68-11.83-18.25l-.2-.6-10,5.26c4.07,7,8,13.43,11,18C154.33,248.68,157.24,251.33,160.69,250.45Z"/><path id="패스_1657" data-name="패스 1657" class="cls-16" d="M160.69,250.45c5.84-1.48,6.38-5.61,3.47-8.2l-.7-.29c-6.57-2.66-7.86-6.68-11.83-18.25l-.2-.6-10,5.26c4.07,7,8,13.43,11,18C154.33,248.68,157.24,251.33,160.69,250.45Z"/><path id="패스_1658" data-name="패스 1658" class="cls-25" d="M249.05,175.44h4.63s-2.53-12.72,1.92-16.18H237.53c.9.68,2,2.45,2,5.41a7.91,7.91,0,0,1-5.85,7.39l1-1,1.1-4.23c-.59.2-2,1.44-3.56,2.27s-4,2.9-5.74,2.9-5.05-.36-5.05,2.31,2,2.7,2,2.7h24.13S248.33,175.44,249.05,175.44Z"/><path id="패스_1659" data-name="패스 1659" class="cls-26" d="M248.94,179h12c-7,5-21.9,3.44-21.9,3.44a2.92,2.92,0,0,0-2.75,3.08,3,3,0,0,0,.58,1.57c1.64,2.08,15.83,3.87,26.34-2.47s12.6-13.09,12.6-20-5.3-9-9.78-9-10.42,3.64-10.42,3.64c-4.45,3.46-1.92,16.18-1.92,16.18h-5.05c-1,0-1.06,1.58-1.06,1.58C247.57,179.19,248.94,179,248.94,179Z"/><path id="패스_1660" data-name="패스 1660" class="cls-26" d="M238.46,160.8l0-.08a.42.42,0,0,1,0-.1,9.2,9.2,0,0,0-.6-1.22l-.06-.11a24.18,24.18,0,0,0-5.28-6.33c-.26.8-.48,1.53-.68,2.2-.47,1.6-.78,2.82-1,3.75a13.3,13.3,0,0,0-5.4,2.54c-.84-.34-1.94-.75-3.36-1.22-.68-.23-1.44-.47-2.27-.72a24.68,24.68,0,0,0,1.73,6.91,13.2,13.2,0,0,0,.59,1.27,9.13,9.13,0,0,0,.62,1.1s0,.08.07.13h0a8.89,8.89,0,0,0,15.68-8.11Z"/><rect id="사각형_4985" data-name="사각형 4985" class="cls-25" x="335.86" y="143.32" width="2.1" height="44.26"/><path id="패스_1661" data-name="패스 1661" class="cls-25" d="M348.91,189.4v-4.5H325.08v4.5h-2.83v4.5h29.5v-4.5Z"/><path id="패스_1662" data-name="패스 1662" class="cls-3" d="M370,179.48l-2.26-1.62-12.75-.14-.52,1.64.14,1.85h0l.14,1.85h0l1,12.28h13l1-12.24Z"/><rect id="사각형_4986" data-name="사각형 4986" class="cls-9" x="372.82" y="199.5" width="5.32" height="60"/><rect id="사각형_4987" data-name="사각형 4987" class="cls-9" x="320.6" y="201.54" width="49.23" height="12.05"/><rect id="사각형_4988" data-name="사각형 4988" class="cls-9" x="19.11" y="208.89" width="48.62" height="10.69"/><g id="그룹_2132" data-name="그룹 2132"><path id="패스_1663" data-name="패스 1663" class="cls-27" d="M358.47,169.33a4.84,4.84,0,0,1,4.55-4.84l-.31,0a4.86,4.86,0,1,0,0,9.72l.31,0A4.85,4.85,0,0,1,358.47,169.33Z"/><ellipse id="타원_2948" data-name="타원 2948" class="cls-28" cx="363.02" cy="169.33" rx="4.55" ry="4.84"/></g><g id="그룹_2133" data-name="그룹 2133"><path id="패스_1664" data-name="패스 1664" class="cls-27" d="M355.52,164.15a2.68,2.68,0,0,1,2.51-2.68h-.17a2.69,2.69,0,0,0,0,5.38H358A2.68,2.68,0,0,1,355.52,164.15Z"/><ellipse id="타원_2949" data-name="타원 2949" class="cls-28" cx="358.03" cy="164.15" rx="2.51" ry="2.68"/></g><g id="그룹_2134" data-name="그룹 2134"><path id="패스_1665" data-name="패스 1665" class="cls-27" d="M361.83,162.46a3.38,3.38,0,0,1,3.18-3.38h-.21a3.39,3.39,0,1,0,0,6.78H365A3.38,3.38,0,0,1,361.83,162.46Z"/><ellipse id="타원_2950" data-name="타원 2950" class="cls-28" cx="365.01" cy="162.46" rx="3.18" ry="3.38"/></g><g id="그룹_2135" data-name="그룹 2135"><path id="패스_1666" data-name="패스 1666" class="cls-27" d="M365.65,158.43a1.69,1.69,0,0,1,1.59-1.68h-.1a1.69,1.69,0,1,0-.08,3.37h.18A1.68,1.68,0,0,1,365.65,158.43Z"/><ellipse id="타원_2951" data-name="타원 2951" class="cls-28" cx="367.24" cy="158.43" rx="1.59" ry="1.68"/></g><g id="그룹_2136" data-name="그룹 2136"><path id="패스_1667" data-name="패스 1667" class="cls-27" d="M354.51,161a1.43,1.43,0,0,1,1.34-1.42h-.08a1.43,1.43,0,0,0,0,2.85h.11A1.41,1.41,0,0,1,354.51,161Z"/><path id="패스_1668" data-name="패스 1668" class="cls-28" d="M357.19,161a1.34,1.34,0,1,0-1.34,1.41A1.41,1.41,0,0,0,357.19,161Z"/></g><rect id="사각형_4989" data-name="사각형 4989" class="cls-9" x="353.6" y="173.45" width="17.16" height="6.02"/><path id="패스_1669" data-name="패스 1669" class="cls-29" d="M55.71,219.58H24.85l.43,5.64H62.46l.43-5.64Z"/><path id="패스_1670" data-name="패스 1670" class="cls-29" d="M367,179.48h-12.6l.13,1.73h15.26l.14-1.73Z"/><path id="패스_1671" data-name="패스 1671" class="cls-30" d="M346.25,110.71H327.57l-9.95,38H356.2Z"/><rect id="사각형_4990" data-name="사각형 4990" class="cls-31" x="331.39" y="110.71" width="11.04" height="37.97"/><path id="패스_1672" data-name="패스 1672" class="cls-25" d="M234.5,170.25a3,3,0,0,1-1.53-.54.36.36,0,0,0-.2-.06h0a.33.33,0,0,0-.3.37h0a3.2,3.2,0,0,1-.34,1.58.33.33,0,0,0,.13.45h0a.33.33,0,0,0,.45-.13h0a3.67,3.67,0,0,0,.4-1.37,3.78,3.78,0,0,0,1.39.37h0a.34.34,0,0,0,0-.67Z"/><g id="그룹_2137" data-name="그룹 2137"><path id="패스_1674" data-name="패스 1674" class="cls-32" d="M249.38,10.15h-48A12.39,12.39,0,0,0,189,22.54h0a12.39,12.39,0,0,0,12.39,12.39h2.64v5.35l5.35-5.35h40a12.39,12.39,0,0,0,12.39-12.39h0a12.39,12.39,0,0,0-12.39-12.39Z"/><rect id="사각형_4991" data-name="사각형 4991" class="cls-18" x="204.22" y="18.16" width="43.4" height="1.52" rx="0.76"/><rect id="사각형_4992" data-name="사각형 4992" class="cls-18" x="204.22" y="21.88" width="43.4" height="1.52" rx="0.76"/><rect id="사각형_4993" data-name="사각형 4993" class="cls-18" x="204.22" y="25.6" width="33.25" height="1.52" rx="0.76"/></g><path id="패스_1675" data-name="패스 1675" class="cls-32" d="M110.38,32.34H62.55a10,10,0,0,0-9.95,9.95h0a9.94,9.94,0,0,0,9.95,10H104l4.3,4.3v-4.3h2.12a9.95,9.95,0,1,0,0-19.9Z"/><path id="패스_1676" data-name="패스 1676" class="cls-18" d="M86,47.68c-2,0-2.55-2.19-3-4-.27-1.06-.59-2.25-1.06-2.25s-.53.53-.83,1.4c-.61,1.73-1.53,4.36-5.59,4.36A11.14,11.14,0,0,1,70.08,46a22.5,22.5,0,0,1-6,1.25.5.5,0,1,1-.06-1,22.61,22.61,0,0,0,5-1,7.2,7.2,0,0,1-.71-.64,5.91,5.91,0,0,1-1.73-4.26,3.83,3.83,0,0,1,4-3.65h0a3.93,3.93,0,0,1,4.12,3.73v.12c.09,2.37-1.5,3.9-3.47,4.89a10.77,10.77,0,0,0,4.24.8c3.35,0,4.07-2,4.65-3.7.37-1.07.72-2.07,1.77-2.07,1.24,0,1.62,1.45,2,3,.5,1.88.93,3.21,2.05,3.21s1.62-1.06,2.35-2.68,1.42-3.14,3.09-3.14c1.51,0,2.32,1.38,3.1,2.71.86,1.49,1.76,3,3.64,3a4.11,4.11,0,0,0,3.42-1.69,4.31,4.31,0,0,1,3.44-1.77A6.4,6.4,0,0,1,110.37,46a.5.5,0,1,1-.85.52,5.41,5.41,0,0,0-4.47-2.37,3.3,3.3,0,0,0-2.71,1.45,5,5,0,0,1-4.15,2c-2.45,0-3.6-2-4.5-3.52-.7-1.19-1.29-2.22-2.24-2.22s-1.48,1-2.17,2.56S87.79,47.68,86,47.68Zm-15.39-10a2.84,2.84,0,0,0-3,2.63.2.2,0,0,0,0,.07A4.91,4.91,0,0,0,69,43.93a6.17,6.17,0,0,0,1.12.92c2-.83,3.67-2.16,3.59-4.25a2.94,2.94,0,0,0-3-2.9h-.16Z"/><g id="그룹_2140" data-name="그룹 2140"><path id="패스_1678" data-name="패스 1678" class="cls-33" d="M151.28,69.32a.8.8,0,0,1-.8-.8h0v-.88a.8.8,0,0,1,.8-.8h0a.8.8,0,0,1,.8.8h0v.88a.8.8,0,0,1-.8.8Z"/><path id="패스_1679" data-name="패스 1679" class="cls-33" d="M153.16,65.14a.37.37,0,0,1-.26-.1,3.25,3.25,0,0,0-4.32-.16l-.25-.31-.22-.34a4,4,0,0,1,5.32.21.41.41,0,0,1,0,.56h0A.41.41,0,0,1,153.16,65.14Z"/></g><g id="그룹_2141" data-name="그룹 2141"><path id="패스_1680" data-name="패스 1680" class="cls-33" d="M162.7,69.32a.8.8,0,0,1-.8-.8h0v-.89a.8.8,0,0,1,.8-.8h0a.8.8,0,0,1,.8.8h0v.89a.8.8,0,0,1-.8.8Z"/><path id="패스_1681" data-name="패스 1681" class="cls-33" d="M160.81,65.14a.4.4,0,0,1-.26-.7h0a4,4,0,0,1,5.3-.22.4.4,0,0,1,.12.56.39.39,0,0,1-.53.13h0a3.27,3.27,0,0,0-4.35.15A.42.42,0,0,1,160.81,65.14Z"/></g><g id="그룹_2142" data-name="그룹 2142"><path id="패스_1682" data-name="패스 1682" class="cls-33" d="M151.28,69.32a.8.8,0,0,0,.8-.8h0v-.89a.8.8,0,0,0-.8-.8h0a.8.8,0,0,0-.8.8h0v.89a.8.8,0,0,0,.8.8Z"/><path id="패스_1683" data-name="패스 1683" class="cls-33" d="M153.16,65.14a.37.37,0,0,0,.3-.14.39.39,0,0,0,0-.56h0a4,4,0,0,0-5.29-.22.42.42,0,0,0-.13.56.4.4,0,0,0,.54.13h0a3.27,3.27,0,0,1,4.35.15A.39.39,0,0,0,153.16,65.14Z"/></g><path id="패스_1684" data-name="패스 1684" class="cls-34" d="M156.89,78.46a10.56,10.56,0,0,1-1.68-.13A.26.26,0,0,1,155,78c0-.14.11-.25.23-.22s3.07.48,4.87-.7c.22-.15.58.3.21.55A7.41,7.41,0,0,1,156.89,78.46Z"/><path id="패스_1685" data-name="패스 1685" class="cls-4" d="M238.4,122.27H189.11a1.59,1.59,0,0,1-1.59-1.59,1,1,0,0,1,0-.17l3.16-31a1.59,1.59,0,0,1,1.59-1.43H243.1a1.6,1.6,0,0,1,1.6,1.59,1.94,1.94,0,0,1,0,.24l-4.7,31A1.59,1.59,0,0,1,238.4,122.27Z"/><path id="패스_1686" data-name="패스 1686" class="cls-35" d="M238.38,122.47H189.13a1.82,1.82,0,0,1-1.8-2l3.16-31a1.8,1.8,0,0,1,1.8-1.63h50.79a1.81,1.81,0,0,1,1.81,1.81,1.23,1.23,0,0,1,0,.27l-4.69,31A1.79,1.79,0,0,1,238.38,122.47ZM192.29,88.28a1.39,1.39,0,0,0-1.4,1.27l-3.16,31a1.43,1.43,0,0,0,.35,1.09,1.41,1.41,0,0,0,1,.47h49.25a1.39,1.39,0,0,0,1.4-1.2l4.7-31a1.41,1.41,0,0,0-1.19-1.61l-.21,0Z"/><path id="패스_1687" data-name="패스 1687" class="cls-35" d="M200.55,113.77l-.27-.3,12.32-10.8,6.7,5.88,10.6-9.29.26.3-10.86,9.52-6.7-5.88Z"/><circle id="타원_2958" data-name="타원 2958" class="cls-13" cx="200.42" cy="113.62" r="0.79"/><circle id="타원_2959" data-name="타원 2959" class="cls-13" cx="212.45" cy="103.03" r="0.79"/><circle id="타원_2960" data-name="타원 2960" class="cls-13" cx="219.33" cy="108.72" r="0.79"/><circle id="타원_2961" data-name="타원 2961" class="cls-13" cx="230.03" cy="99.41" r="0.79"/><path id="패스_1688" data-name="패스 1688" class="cls-19" d="M157.66,102.91a18.8,18.8,0,0,1-6.69-1,6.92,6.92,0,0,1-4-6.47,12.52,12.52,0,0,1,1.21-5.68.3.3,0,0,1,.4-.14.29.29,0,0,1,.13.4,12.05,12.05,0,0,0-1.14,5.41c0,.73.21,4.45,3.65,5.93a21.93,21.93,0,0,0,12.9,0c3.44-1.48,3.64-5.2,3.65-5.93A11.93,11.93,0,0,0,166.61,90a.31.31,0,0,1,.14-.4.3.3,0,0,1,.4.14,12.52,12.52,0,0,1,1.21,5.68,6.93,6.93,0,0,1-4,6.47A18.71,18.71,0,0,1,157.66,102.91Z"/><path id="패스_1689" data-name="패스 1689" class="cls-19" d="M157.74,108.72a2.62,2.62,0,1,1,2.62-2.62A2.62,2.62,0,0,1,157.74,108.72Zm0-4.64a2,2,0,1,0,2,2A2,2,0,0,0,157.74,104.08Z"/><g id="그룹_2143" data-name="그룹 2143" class="cls-36"><path id="패스_1690" data-name="패스 1690" class="cls-37" d="M121.77,175.59h0a.2.2,0,0,1-.19-.21h0a3.73,3.73,0,0,1,.07-.61.21.21,0,0,1,.23-.17h0a.21.21,0,0,1,.16.24h0s0,.19-.06.57A.19.19,0,0,1,121.77,175.59Z"/><path id="패스_1691" data-name="패스 1691" class="cls-37" d="M140.66,225.24a.2.2,0,0,1-.17-.11c-.21-.35-.42-.7-.62-1a.19.19,0,0,1,.07-.27h0a.2.2,0,0,1,.27.07h0l.63,1.05a.22.22,0,0,1-.07.28h0Zm-1.24-2.11a.19.19,0,0,1-.17-.1c-.21-.35-.41-.7-.61-1.05a.19.19,0,0,1,.07-.27h0a.19.19,0,0,1,.27.07h0c.2.35.41.7.62,1.05a.22.22,0,0,1-.07.28h0l-.1,0ZM138.2,221a.19.19,0,0,1-.17-.1l-.6-1.06a.19.19,0,0,1,.07-.27h0a.21.21,0,0,1,.28.07h0l.6,1.06a.21.21,0,0,1-.08.28h0l-.1,0ZM137,218.9a.19.19,0,0,1-.17-.1l-.59-1.07a.19.19,0,0,1,.07-.27h0a.2.2,0,0,1,.28.08h0l.59,1.06a.21.21,0,0,1-.08.28h0l-.1,0Zm-1.18-2.14a.21.21,0,0,1-.17-.1l-.58-1.07a.2.2,0,0,1,.08-.27h0a.2.2,0,0,1,.27.09h0l.58,1.07a.2.2,0,0,1-.08.27h0l-.1,0Zm-1.15-2.15a.21.21,0,0,1-.18-.11l-.57-1.08a.2.2,0,0,1,.09-.27h0a.2.2,0,0,1,.27.09h0q.28.52.57,1.08a.21.21,0,0,1-.08.27h0l-.09,0Zm-1.13-2.16a.23.23,0,0,1-.18-.11l-.55-1.09a.21.21,0,0,1,.08-.27h0a.19.19,0,0,1,.26.09h0l.56,1.08a.2.2,0,0,1-.09.27.14.14,0,0,1-.09,0Zm-1.1-2.18a.19.19,0,0,1-.18-.11l-.54-1.1a.19.19,0,0,1,.09-.26h0a.2.2,0,0,1,.27.09h0l.54,1.09a.2.2,0,0,1-.09.27l-.09,0Zm-1.07-2.19a.19.19,0,0,1-.18-.11l-.53-1.1a.2.2,0,0,1,.1-.27h0a.2.2,0,0,1,.27.1h0c.17.36.34.73.52,1.1a.2.2,0,0,1-.09.27h-.09Zm-1.05-2.21a.2.2,0,0,1-.18-.11q-.25-.57-.51-1.11a.21.21,0,0,1,.1-.27h0a.21.21,0,0,1,.27.1h0q.24.56.51,1.11a.2.2,0,0,1-.1.26h-.09Zm-1-2.22a.18.18,0,0,1-.18-.12c-.17-.37-.33-.75-.49-1.11a.2.2,0,0,1,.1-.27.2.2,0,0,1,.26.1c.16.37.33.74.49,1.12a.19.19,0,0,1-.1.26h0l-.08,0Zm-1-2.24a.21.21,0,0,1-.19-.12c-.16-.38-.32-.75-.47-1.12a.21.21,0,0,1,.11-.27h0a.2.2,0,0,1,.26.11h0c.16.37.31.75.47,1.12a.2.2,0,0,1-.1.27h-.08Zm-.94-2.25a.2.2,0,0,1-.18-.12l-.46-1.14a.2.2,0,0,1,.12-.26h0a.2.2,0,0,1,.26.11h0c.14.38.29.75.45,1.14a.21.21,0,0,1-.11.26h-.08Zm-.89-2.27a.21.21,0,0,1-.19-.13c-.14-.39-.29-.77-.42-1.14a.2.2,0,0,1,.11-.26h0a.2.2,0,0,1,.26.12h0l.43,1.14a.2.2,0,0,1-.11.26h-.08Zm-.84-2.29a.2.2,0,0,1-.19-.13c-.14-.39-.27-.78-.4-1.16a.19.19,0,0,1,.12-.25h0a.2.2,0,0,1,.26.12h0c.13.38.26.76.4,1.15a.22.22,0,0,1-.12.26h-.07Zm-.8-2.31a.21.21,0,0,1-.19-.13c-.13-.4-.25-.79-.37-1.17a.21.21,0,0,1,.13-.25h0a.19.19,0,0,1,.25.13c.12.38.25.77.37,1.16a.19.19,0,0,1-.12.25h-.07Zm-.73-2.32a.19.19,0,0,1-.19-.15c-.12-.4-.23-.79-.34-1.17a.2.2,0,0,1,.13-.25h0a.19.19,0,0,1,.24.14h0c.11.38.22.77.34,1.17a.2.2,0,0,1-.13.25h-.06Zm-.66-2.35a.21.21,0,0,1-.2-.15c-.1-.4-.2-.8-.3-1.18a.21.21,0,0,1,.15-.25h0a.2.2,0,0,1,.24.15h0c.1.38.2.77.3,1.18a.19.19,0,0,1-.14.24h0Zm-.59-2.37a.2.2,0,0,1-.2-.15c-.09-.42-.18-.81-.26-1.2a.21.21,0,0,1,.15-.24h0a.19.19,0,0,1,.23.15h0c.08.39.17.78.26,1.19a.19.19,0,0,1-.15.24h0Zm-.49-2.39a.18.18,0,0,1-.2-.16c-.08-.42-.15-.82-.21-1.21a.2.2,0,0,1,.17-.23.2.2,0,0,1,.22.17h0c.07.38.13.78.21,1.2a.2.2,0,0,1-.16.23h0Zm-.38-2.41a.2.2,0,0,1-.2-.17c-.06-.43-.11-.84-.14-1.22a.2.2,0,0,1,.18-.22h0a.2.2,0,0,1,.22.18h0c0,.38.08.78.13,1.21a.19.19,0,0,1-.17.22h0Zm-.24-2.42a.21.21,0,0,1-.2-.19c0-.43,0-.84,0-1.23a.2.2,0,0,1,.2-.2h0a.2.2,0,0,1,.2.2c0,.38,0,.79,0,1.21a.19.19,0,0,1-.18.21h0Z"/><path id="패스_1692" data-name="패스 1692" class="cls-37" d="M141.62,226.81a.19.19,0,0,1-.18-.1l-.31-.51a.22.22,0,0,1,.07-.28h0a.22.22,0,0,1,.28.07h0l.31.52a.2.2,0,0,1-.07.27h0A.19.19,0,0,1,141.62,226.81Z"/></g><path id="패스_1693" data-name="패스 1693" class="cls-38" d="M150.64,193.59a.2.2,0,0,1-.2-.18.2.2,0,0,1,.18-.22h0l1.2-.15a.2.2,0,0,1,.23.17h0a.19.19,0,0,1-.17.22h0l-1.21.15Zm2.41-.32a.2.2,0,0,1-.2-.17.2.2,0,0,1,.17-.23h0l1.19-.17a.2.2,0,0,1,.23.17h0a.2.2,0,0,1-.17.23h0l-1.2.17Zm2.39-.35a.2.2,0,0,1,0-.4h0l1.19-.19a.2.2,0,0,1,.23.17h0a.2.2,0,0,1-.16.23h0l-1.19.19Zm2.38-.38a.2.2,0,0,1,0-.4h0l1.19-.2a.2.2,0,0,1,.23.16h0a.21.21,0,0,1-.16.24h0l-1.19.2Zm2.38-.41a.19.19,0,0,1-.2-.16.2.2,0,0,1,.16-.23h0l1.18-.22a.21.21,0,0,1,.24.16h0a.21.21,0,0,1-.16.23h0l-1.18.21Zm2.37-.43a.2.2,0,0,1-.2-.16.21.21,0,0,1,.16-.24h0l1.18-.22a.2.2,0,0,1,.23.16h0a.18.18,0,0,1-.15.23h0l-1.19.23Zm2.36-.46a.19.19,0,0,1-.2-.16.2.2,0,0,1,.16-.23h0l1.18-.24a.2.2,0,0,1,.24.15h0a.21.21,0,0,1-.16.24h0l-1.18.24h0Zm2.36-.48a.2.2,0,0,1-.2-.16.21.21,0,0,1,.16-.24h0l1.17-.25a.21.21,0,0,1,.24.15h0a.19.19,0,0,1-.15.24h0l-1.18.26Zm2.36-.51a.2.2,0,0,1-.05-.4h0l1.17-.26a.19.19,0,0,1,.24.15h0a.2.2,0,0,1-.15.24h0l-1.17.26Zm2.34-.54a.19.19,0,0,1-.19-.16.2.2,0,0,1,.15-.24l1.17-.28a.2.2,0,0,1,.24.15h0a.19.19,0,0,1-.15.24h0l-1.17.28Zm2.34-.57a.19.19,0,0,1-.19-.15.21.21,0,0,1,.15-.25h0l1.16-.3a.21.21,0,0,1,.25.15h0a.2.2,0,0,1-.15.24h0l-1.17.3Zm2.34-.6a.2.2,0,0,1-.2-.15.19.19,0,0,1,.14-.24h0l1.16-.31a.2.2,0,0,1,.25.14h0a.2.2,0,0,1-.14.25h0l-1.16.31Zm2.31-.64a.2.2,0,0,1-.19-.14.2.2,0,0,1,.14-.25h0l1.15-.33a.2.2,0,0,1,.25.13h0a.2.2,0,0,1-.13.25h0c-.39.11-.77.23-1.16.33Zm2.31-.67a.21.21,0,0,1-.19-.14.2.2,0,0,1,.13-.25h0l1.15-.36a.21.21,0,0,1,.25.13h0a.22.22,0,0,1-.13.26h0l-1.16.35Zm2.31-.72a.19.19,0,0,1-.19-.14.2.2,0,0,1,.13-.25h0l1.14-.37a.19.19,0,0,1,.25.12h0a.2.2,0,0,1-.12.26h0l-1.15.37Zm2.28-.76a.18.18,0,0,1-.18-.13.2.2,0,0,1,.12-.26h0L187,185a.2.2,0,0,1,.26.12h0a.2.2,0,0,1-.12.26h0l-1.14.4Zm2.27-.81a.21.21,0,0,1-.19-.13.22.22,0,0,1,.12-.26h0l1.13-.42a.2.2,0,0,1,.26.11h0a.2.2,0,0,1-.12.26h0l-1.13.43Zm2.25-.86a.21.21,0,0,1-.19-.13.2.2,0,0,1,.11-.26l1.12-.45a.19.19,0,0,1,.26.1h0a.21.21,0,0,1-.11.27h0l-1.12.45h-.07Zm2.22-.93a.2.2,0,0,1-.18-.12.2.2,0,0,1,.1-.27l1.1-.48a.18.18,0,0,1,.26.1h0a.19.19,0,0,1-.1.26h0l-1.1.49-.08,0Zm2.19-1a.21.21,0,0,1-.18-.12.19.19,0,0,1,.1-.26h0l1.07-.53a.2.2,0,0,1,.27.09h0a.21.21,0,0,1-.08.27h0c-.35.18-.71.36-1.08.53l-.09,0Zm2.15-1.08a.18.18,0,0,1-.17-.11.2.2,0,0,1,.08-.27h0l1-.57a.21.21,0,0,1,.28.08h0a.2.2,0,0,1-.08.27l-1.06.58-.09,0Zm2.1-1.17a.21.21,0,0,1-.17-.1.22.22,0,0,1,.07-.28h0l1-.62a.2.2,0,0,1,.28.06h0a.19.19,0,0,1-.06.27h0l-1,.63-.1,0Zm2-1.29a.2.2,0,0,1-.11-.36h0l1-.68a.2.2,0,0,1,.28,0h0a.2.2,0,0,1-.05.28h0c-.32.24-.65.47-1,.7a.2.2,0,0,1-.11,0Zm2-1.41a.2.2,0,0,1-.13-.36h0c.32-.25.63-.5.92-.76a.2.2,0,0,1,.28,0h0a.2.2,0,0,1,0,.28h0c-.3.26-.61.51-.93.76a.18.18,0,0,1-.12,0Zm1.82-1.57a.21.21,0,0,1-.15-.07.19.19,0,0,1,0-.28h0q.44-.42.84-.84a.19.19,0,0,1,.28,0h0a.19.19,0,0,1,0,.28h0c-.27.29-.56.58-.86.86a.16.16,0,0,1-.13.06Zm1.64-1.76a.19.19,0,0,1-.15-.32h0l.66-.86a.21.21,0,0,1,.28-.05h0a.21.21,0,0,1,0,.28h0c-.22.3-.45.59-.68.88a.2.2,0,0,1-.16.07Z"/><path id="패스_1694" data-name="패스 1694" class="cls-39" d="M156,68.87a4.62,4.62,0,0,1-1.07,2.7,2.18,2.18,0,0,0,4.11-.08,4.65,4.65,0,0,1-1-2.57,2.25,2.25,0,0,0-1.07-.28A2.16,2.16,0,0,0,156,68.87Z"/><path id="패스_1695" data-name="패스 1695" class="cls-39" d="M159.72,70.82a2.46,2.46,0,0,1,0,.26,3.91,3.91,0,1,0-.9-2.5v.19A2.72,2.72,0,0,1,159.72,70.82Z"/><path id="패스_1696" data-name="패스 1696" class="cls-39" d="M151.28,64.67a3.9,3.9,0,1,0,2.91,6.49,2.07,2.07,0,0,1,0-.35,2.8,2.8,0,0,1,1-2.15v-.09A3.92,3.92,0,0,0,151.28,64.67Z"/><path id="패스_1697" data-name="패스 1697" class="cls-18" d="M162.7,63.87A4.7,4.7,0,0,0,158,68.25a2.8,2.8,0,0,0-1.07-.21,2.69,2.69,0,0,0-1,.18,4.71,4.71,0,1,0-4.69,5.06A4.64,4.64,0,0,0,154.45,72a3.9,3.9,0,0,0,.45-.46,4.65,4.65,0,0,0,1.07-2.7,2,2,0,0,1,1-.23,2.14,2.14,0,0,1,1.07.28,4.62,4.62,0,0,0,1,2.56,5.35,5.35,0,0,0,.45.5,4.7,4.7,0,1,0,3.24-8.12Zm-8.51,7.3a3.9,3.9,0,1,1,1-2.59v.09a3.85,3.85,0,0,1-1,2.5Zm8.51,1.31a3.89,3.89,0,0,1-3.9-3.72c0-.06,0-.12,0-.19a3.9,3.9,0,1,1,3.91,3.91Z"/></g></g></g></g></svg>