<svg xmlns="http://www.w3.org/2000/svg" viewBox="0 0 35.89 35.83"><defs><style>.cls-1{fill:#000d22;}</style></defs><g id="레이어_2" data-name="레이어 2"><g id="레이어_1-2" data-name="레이어 1"><path class="cls-1" d="M7.54,21.45a5.18,5.18,0,1,1,5.18-5.18A5.18,5.18,0,0,1,7.54,21.45Zm0-8.85a3.68,3.68,0,1,0,3.68,3.67A3.68,3.68,0,0,0,7.54,12.6Z"/><path class="cls-1" d="M30.72,20.39a.75.75,0,0,0-1,.39l-4.26,9.94H17a2.48,2.48,0,0,0,.54-2.42c-.6-1.59-3.1-2.19-4.27-2.39A6.6,6.6,0,0,0,8.14,21a6.46,6.46,0,0,0-5.53,1.12C.16,24.18,0,27.94,0,28.69v6.39a.76.76,0,0,0,.75.75.76.76,0,0,0,.75-.75v-6.4c0-.61.13-3.77,2.06-5.36a5.09,5.09,0,0,1,4.35-.8C8,22.53,11,23,12,26.77a.76.76,0,0,0,.64.56c1.26.15,3.26.73,3.55,1.5a1.09,1.09,0,0,1-.27.93L9.57,28.54,8,26.09a.75.75,0,0,0-1.27.8l1.71,2.72A.74.74,0,0,0,9,30l1.25.24-.93,4.74a.74.74,0,0,0,.59.88l.14,0a.75.75,0,0,0,.74-.61l.93-4.74L14.2,31a.77.77,0,0,0-.2.51.76.76,0,0,0,.75.75H26a.75.75,0,0,0,.69-.46l4.45-10.38A.76.76,0,0,0,30.72,20.39Z"/><path class="cls-1" d="M35.14,35.25H13.2a.75.75,0,0,1,0-1.5H35.14a.75.75,0,0,1,0,1.5Z"/><path class="cls-1" d="M27.85,0a7.29,7.29,0,1,0,7.29,7.29A7.29,7.29,0,0,0,27.85,0Zm3.5,8H28.6v2.75a.75.75,0,0,1-1.5,0V8H24.35a.75.75,0,0,1,0-1.5H27.1V3.79a.75.75,0,1,1,1.5,0V6.54h2.75a.75.75,0,1,1,0,1.5Z"/></g></g></svg>