<svg xmlns="http://www.w3.org/2000/svg" viewBox="0 0 60.17 35.16"><defs><style>.cls-1{fill:#fff;}.cls-2{fill:#000d22;}</style></defs><g id="레이어_2" data-name="레이어 2"><g id="레이어_1-2" data-name="레이어 1"><rect class="cls-1" x="1" y="1" width="39.62" height="26.42" rx="2.21"/><path class="cls-2" d="M38.41,28.42H3.21A3.21,3.21,0,0,1,0,25.21v-22A3.21,3.21,0,0,1,3.21,0h35.2a3.22,3.22,0,0,1,3.22,3.21v22A3.22,3.22,0,0,1,38.41,28.42ZM3.21,2A1.21,1.21,0,0,0,2,3.21v22a1.21,1.21,0,0,0,1.21,1.21h35.2a1.22,1.22,0,0,0,1.22-1.21v-22A1.22,1.22,0,0,0,38.41,2Z"/><path class="cls-2" d="M40.62,24.14H1s0,3.28,2.82,3.28h34S40.62,27.87,40.62,24.14Z"/><rect class="cls-2" x="17.33" y="27.42" width="6.96" height="4.64"/><path class="cls-2" d="M28.64,33.35H13a1,1,0,1,1,0-2H28.64a1,1,0,0,1,0,2Z"/><path class="cls-1" d="M56.91,32h-28V15.31a1.47,1.47,0,0,1,1.47-1.47H55.44a1.47,1.47,0,0,1,1.47,1.47Z"/><path class="cls-2" d="M57.91,33h-30V15.31a2.47,2.47,0,0,1,2.47-2.47H55.44a2.48,2.48,0,0,1,2.47,2.47Zm-28-2h26V15.31a.47.47,0,0,0-.47-.47H30.36a.47.47,0,0,0-.47.47Z"/><path class="cls-2" d="M28.89,16.75h28a2.73,2.73,0,0,0-2.31-2.91c-2.51-.47-24.24,0-24.24,0S27.81,15.75,28.89,16.75Z"/><path class="cls-2" d="M26.12,32H59.67a0,0,0,0,1,0,0v0a2.62,2.62,0,0,1-2.62,2.62H28.74A2.62,2.62,0,0,1,26.12,32v0a0,0,0,0,1,0,0Z"/><path class="cls-2" d="M57.06,35.16H28.74A3.12,3.12,0,0,1,25.62,32a.5.5,0,0,1,.5-.5H59.67a.5.5,0,0,1,.5.5A3.12,3.12,0,0,1,57.06,35.16ZM26.68,32.54a2.11,2.11,0,0,0,2.06,1.62H57.06a2.13,2.13,0,0,0,2.06-1.62Z"/><circle class="cls-1" cx="42.9" cy="14.96" r="0.76"/><circle class="cls-1" cx="20.81" cy="26" r="0.76"/></g></g></svg>