<svg xmlns="http://www.w3.org/2000/svg" viewBox="0 0 36.39 41.05"><defs><style>.cls-1{fill:#000d22;}</style></defs><g id="레이어_2" data-name="레이어 2"><g id="레이어_1-2" data-name="레이어 1"><path class="cls-1" d="M17.71,11.05a2.17,2.17,0,0,0,.56-1.46,2.2,2.2,0,1,0-3.83,1.46,3.63,3.63,0,0,0-.92,2.51.75.75,0,0,0,.75.75h3.61a.76.76,0,0,0,.75-.75A3.63,3.63,0,0,0,17.71,11.05ZM16.07,8.89a.7.7,0,1,1-.7.7A.7.7,0,0,1,16.07,8.89Zm-1,3.92c.19-.63.58-1,1-1s.77.39.95,1Z"/><path class="cls-1" d="M29.39,0A7,7,0,0,0,23,4.26H.75A.75.75,0,0,0,0,5V40.3a.76.76,0,0,0,.75.75H31.4a.76.76,0,0,0,.75-.75V13.43A7,7,0,0,0,29.39,0ZM22.51,5.76A6.36,6.36,0,0,0,22.39,7a7,7,0,0,0,7,7,6.56,6.56,0,0,0,1.26-.12v1.54H1.5V5.76ZM1.5,16.92H30.65V35.29H1.5Zm0,22.63V36.79H30.65v2.76ZM33.41,6,32.15,7.26l-1.5,1.5L29.38,10a.73.73,0,0,1-.53.22.74.74,0,0,1-.53-.22L25.37,7.07A.75.75,0,1,1,26.43,6l2.42,2.42,1.8-1.79,1.5-1.5.2-.2a.74.74,0,0,1,1.06,0A.75.75,0,0,1,33.41,6Z"/><path class="cls-1" d="M13.23,19.76H3.75a.75.75,0,0,1,0-1.5h9.48a.75.75,0,0,1,0,1.5Z"/><path class="cls-1" d="M13.23,22.6H3.75a.75.75,0,0,1,0-1.5h9.48a.75.75,0,0,1,0,1.5Z"/><path class="cls-1" d="M13.23,25.44H3.75a.75.75,0,0,1,0-1.5h9.48a.75.75,0,0,1,0,1.5Z"/><path class="cls-1" d="M25.94,28.28H3.75a.75.75,0,0,1,0-1.5H25.94a.75.75,0,0,1,0,1.5Z"/><path class="cls-1" d="M25.94,31.11H3.75a.75.75,0,0,1,0-1.5H25.94a.75.75,0,0,1,0,1.5Z"/><path class="cls-1" d="M25.94,34H3.75a.75.75,0,0,1,0-1.5H25.94a.75.75,0,0,1,0,1.5Z"/><circle class="cls-1" cx="10.64" cy="11.04" r="0.66"/><circle class="cls-1" cx="7.83" cy="11.04" r="0.66"/><circle class="cls-1" cx="5.02" cy="11.04" r="0.66"/></g></g></svg>