<svg xmlns="http://www.w3.org/2000/svg" viewBox="0 0 17.1 12.1"><defs><style>.cls-1{fill:#a4acb8;}</style></defs><g id="레이어_2" data-name="레이어 2"><g id="레이어_2-2" data-name="레이어 2"><path class="cls-1" d="M3.5,3.9a.6.6,0,1,0,.6.6.6.6,0,0,0-.6-.6Z"/><path class="cls-1" d="M6.5,3.9a.6.6,0,1,0,.6.6.6.6,0,0,0-.6-.6Z"/><path class="cls-1" d="M7.83,7.8H1.6a.4.4,0,0,1-.4-.4V1.6a.4.4,0,0,1,.4-.4H14.4a.4.4,0,0,1,.4.4V3.43a4.66,4.66,0,0,1,1.2,1V1.6A1.59,1.59,0,0,0,14.4,0H1.6A1.59,1.59,0,0,0,0,1.6V7.4A1.59,1.59,0,0,0,1.6,9H8.07A4.73,4.73,0,0,1,7.83,7.8Z"/><path class="cls-1" d="M16.92,11.08,15.36,9.51a3.51,3.51,0,1,0-.85.85l1.57,1.56a.59.59,0,0,0,.84-.84ZM12.5,9.8a2.32,2.32,0,1,1,2-1.16,2.47,2.47,0,0,1-.85.85A2.31,2.31,0,0,1,12.5,9.8Z"/></g></g></svg>