<svg xmlns="http://www.w3.org/2000/svg" viewBox="0 0 44.86 43.36"><defs><style>.cls-1{fill:#000d22;}</style></defs><g id="레이어_2" data-name="레이어 2"><g id="레이어_1-2" data-name="레이어 1"><path class="cls-1" d="M43.74,25.87A2.66,2.66,0,0,0,41,25.33,3.16,3.16,0,0,0,39.4,24a3.31,3.31,0,0,0-2.42.14,3.34,3.34,0,0,0-.43-.39,1,1,0,0,0,.19-.56V14.45a1,1,0,0,0-1-1H1a1,1,0,0,0-1,1v8.71a1,1,0,0,0,1,1H28.64V26.9H1a1,1,0,0,0-1,1v8.71a1,1,0,0,0,1,1H26.28c3,3.85,4.49,5.54,5.47,5.65.57.07,1.69.1,2.91.1,2.32,0,5-.09,5.2-.09a.74.74,0,0,0,.35-.1c.14-.08,3.43-2,3.86-5.26.29-2.24.61-6.72.78-9.19A3.44,3.44,0,0,0,43.74,25.87ZM5.26,20.65a2,2,0,1,1,2-2A2,2,0,0,1,5.26,20.65Zm7.09-.84a1,1,0,1,1,0-2H28.64v2ZM5.26,34.29a2,2,0,1,1,2-2A2,2,0,0,1,5.26,34.29Zm7.09-1a1,1,0,0,1,0-2h9.78a3.12,3.12,0,0,0,.67,1.79l.16.21Zm30.23,4.45c-.29,2.21-2.38,3.69-3,4.07-1.09,0-6.3.16-7.65,0-.58-.2-2.23-2.18-3.79-4.17-.88-1.12-1.74-2.25-2.35-3.07l-1-1.28c-.34-.44-.64-.83-.89-1.14a1.68,1.68,0,0,1-.34-.86,1.4,1.4,0,0,1,.05-.58c.16-.49.37-.76.62-.8.58-.09,1.49.53,2.39,1.38a16.88,16.88,0,0,1,1.82,2l.27.35,0,0,.12.1.11.08.14,0a.32.32,0,0,0,.14,0l.06,0,.08,0,.15,0,.14-.07s0,0,.07,0l0,0a.58.58,0,0,0,.1-.12.44.44,0,0,0,.08-.11s0-.09.05-.13,0-.08,0-.11,0,0,0,0a.43.43,0,0,1,0,0V17.1c0-.38.14-1,1.12-1,.28,0,1.12,0,1.12,1.42V30.91a.75.75,0,1,0,1.5,0V24.72a1.64,1.64,0,0,1,2.11.53v5.66a.75.75,0,1,0,1.5,0V25.5a2,2,0,0,1,1.38-.13,1.74,1.74,0,0,1,.91.88.84.84,0,0,0-.05.17l-.12,4.72a.75.75,0,0,0,.72.78.77.77,0,0,0,.77-.73l.12-4.33a1.2,1.2,0,0,1,1.53.13,2,2,0,0,1,.6,1.63C43.22,30.59,42.88,35.43,42.58,37.71Z"/><path class="cls-1" d="M1,10.71H35.74a1,1,0,0,0,1-1V1a1,1,0,0,0-1-1H1A1,1,0,0,0,0,1V9.71A1,1,0,0,0,1,10.71ZM12.35,4.36H31.58a1,1,0,0,1,0,2H12.35a1,1,0,0,1,0-2Zm-7.09-1a2,2,0,1,1-2,2A2,2,0,0,1,5.26,3.33Z"/></g></g></svg>