<svg xmlns="http://www.w3.org/2000/svg" viewBox="0 0 419.83 257.59"><defs><style>.cls-1{fill:#fff;}.cls-15,.cls-16,.cls-17,.cls-18,.cls-19,.cls-2,.cls-20,.cls-3,.cls-6{isolation:isolate;}.cls-3{font-size:15px;letter-spacing:-0.03em;}.cls-18,.cls-19,.cls-20,.cls-3,.cls-6,.cls-7{fill:#3b3b46;}.cls-3,.cls-6{font-family:Roboto-Medium, Roboto;font-weight:500;}.cls-4{fill:#dbe2e8;}.cls-15,.cls-16,.cls-17,.cls-5{fill:#059bc2;}.cls-6{font-size:9px;letter-spacing:-0.03em;}.cls-8{fill:#cae6ed;}.cls-10,.cls-12,.cls-13,.cls-9{fill:none;stroke-linecap:round;stroke-miterlimit:10;}.cls-10,.cls-9{stroke:#3b3b46;}.cls-9{stroke-width:1.5px;}.cls-10,.cls-12{stroke-width:2px;}.cls-11{fill:#333;}.cls-12,.cls-13{stroke:#333;}.cls-13{stroke-width:3px;}.cls-14{fill:#13d3db;}.cls-15,.cls-16,.cls-17,.cls-18,.cls-19,.cls-20{font-size:10px;}.cls-15,.cls-18{font-family:NotoSansCJKkr-Regular-KSCpc-EUC-H, Noto Sans CJK KR;letter-spacing:-0.02em;}.cls-16,.cls-19{font-family:NotoSansArmenian-Bold, Noto Sans Armenian;}.cls-16,.cls-17,.cls-19,.cls-20{font-weight:700;letter-spacing:-0.02em;}.cls-17,.cls-20{font-family:Roboto-Bold, Roboto;}</style></defs><g id="레이어_2" data-name="레이어 2"><g id="레이어_1-2" data-name="레이어 1"><g id="그룹_2628" data-name="그룹 2628"><circle id="타원_2580" data-name="타원 2580" class="cls-1" cx="222.99" cy="117.63" r="37.66"/><g id="그룹_1055" data-name="그룹 1055"><g class="cls-2"><text class="cls-3" transform="translate(209.12 122.92)">50%</text></g><path id="빼기_29" data-name="빼기 29" class="cls-4" d="M180.26,117.29a42.66,42.66,0,1,1,3.36,16.63A42.52,42.52,0,0,1,180.26,117.29Zm80.07,0A37.37,37.37,0,1,0,223,154.66,37.37,37.37,0,0,0,260.33,117.29Z"/><path id="교차_2" data-name="교차 2" class="cls-5" d="M185.6,117.63a37.37,37.37,0,0,0,74.73,0h5.34a41.8,41.8,0,0,1-3.36,16.5,42.23,42.23,0,0,1-3.93,7.2,43,43,0,0,1-52,15.34,42.74,42.74,0,0,1-13.58-9.08,42.82,42.82,0,0,1-5.21-6.27,41.24,41.24,0,0,1-3.94-7.2,41.71,41.71,0,0,1-3.36-16.49Z"/></g></g><g class="cls-2"><text class="cls-6" transform="translate(306.37 234.71)">25%</text></g><path id="패스_288" data-name="패스 288" class="cls-7" d="M392.88,212.48c2.15-2.16,11-1,11.66,3.06.73,4.41-1,7.34-3.46,7.85-3.6.74-7.93-3.33-8.56-4.93C391.7,216.4,391.85,213.51,392.88,212.48Z"/><path id="패스_289" data-name="패스 289" class="cls-7" d="M386.87,172.18s-11.67-.92-17.18,10.24c-6.65,13.46-1.21,27.66,2.88,32,2.41,2.56,4.42,1.82,6.3,1.48l2.39-.17-1.59,1.41,3.49-.63,9.64-1.8.33,1.34a18.6,18.6,0,0,0,5.24-2c3.15-1.63,7.45-7.14,8-13.52,1.11-13.45-5.29-19.9-8.5-23A20.31,20.31,0,0,0,386.87,172.18Z"/><path id="패스_300" data-name="패스 300" class="cls-1" d="M377.05,256.68h16.32l2.26-16.94s-1.13-14.47-1.13-14.54-1.35-3.93-1.35-3.93l-1-4.41-.41-3.06-7.13,1.55-4.6.36-1.24.22s-.66,2-.69,2.21-1.94,5.24-1.94,5.24-.92,9-.92,9.1.36,10.44.36,10.44Z"/><path id="패스_301" data-name="패스 301" class="cls-8" d="M396.26,223.05l3.89,2.6,9.05,4,4,2.33,2.28,2.48,2.27,9.31.8,13.09H393l.47-6.67.59-4.94.2-7.56.66-8.12-1.05-8.26Z"/><path id="패스_302" data-name="패스 302" class="cls-8" d="M376.9,256.81l-.73-10.33-.66-8.7-.41-8.28.86-8.79-6.64,5.08-8.68,4-5.78,3.68-2.81,10.38-1.45,13Z"/><path id="패스_303" data-name="패스 303" class="cls-9" d="M350.81,256.83s1.24-20.5,4.31-23.7c3.25-3.38,14.31-7.57,15.78-8.21"/><path id="패스_304" data-name="패스 304" class="cls-9" d="M377.59,218.6s-8.48,7.05-11,12.41l2.78,3.21s-1.87,2.31-2.78,3.5c0,0,.91,6.13,5.27,19.11"/><path id="패스_305" data-name="패스 305" class="cls-9" d="M359.08,230.65a247.3,247.3,0,0,1,2.84,26.18"/><path id="패스_306" data-name="패스 306" class="cls-10" d="M377.93,216.69s.24,4.19-1.87,6.91"/><path id="패스_307" data-name="패스 307" class="cls-9" d="M376.64,219.42a15.83,15.83,0,0,0-1.44,6.27c-.05,3.5.86,24.77,2.06,31.14"/><path id="패스_308" data-name="패스 308" class="cls-10" d="M392.25,215.59s-.81,5.7,2.11,8.43"/><path id="패스_309" data-name="패스 309" class="cls-9" d="M392.87,219s7.91,7.71,9.87,12.12c0,0-2.25,3.34-2.54,3.73s2.4,2.74,3.45,3.6c0,0-3.5,11-5.65,18.4"/><path id="패스_310" data-name="패스 310" class="cls-9" d="M393.25,220.36s1.44,1.69,1.4,5.81-1,17.78-2,30.67"/><path id="패스_311" data-name="패스 311" class="cls-9" d="M375.43,233.72a38.83,38.83,0,0,0,18.86,0"/><path id="패스_312" data-name="패스 312" class="cls-9" d="M397.8,224.22s12.66,5.35,15,6.89a9.82,9.82,0,0,1,4.12,6c.38,2.06,1.86,14.9,2.2,19.69"/><path id="패스_313" data-name="패스 313" class="cls-9" d="M407.77,256.83s1.39-22.93,3.07-26.77"/><g id="패스_314" data-name="패스 314"><path class="cls-1" d="M384.67,219.68h0a7.42,7.42,0,0,1-3-.61,17.31,17.31,0,0,1-7.15-5.5c-3-4-3.75-9.35-2.3-15.76a28.33,28.33,0,0,1,4-9.62,19.89,19.89,0,0,1,5.24-5.34,15.55,15.55,0,0,1,6.61-2.69h.21c2.14.23,4.22,1.8,6.21,4.65a26.3,26.3,0,0,1,2.6,4.75l.4,1.06c.3.81.67,1.81,1,2.7a11,11,0,0,0,.76,1.61l.48.06c1,.12,2.57.31,3.36,1.77a6.61,6.61,0,0,1,.46,4.09,6,6,0,0,1-1.64,3.43,10.52,10.52,0,0,1-1.33.95,3.06,3.06,0,0,0-1.57,1.88c-1.79,4.56-5.91,8.7-9.17,11.06A9.44,9.44,0,0,1,384.67,219.68Z"/><path class="cls-7" d="M388.14,181.15s-11.4,1.12-15,16.89c-3.25,14.32,5.95,18.81,8.88,20.12a6.39,6.39,0,0,0,2.62.52,8.48,8.48,0,0,0,4.59-1.32c3.24-2.35,7.14-6.34,8.82-10.61.89-2.24,1.74-2,3.18-3.23,1.22-1.05,1.94-4.43.94-6.28-.78-1.47-2.91-1.09-3.52-1.45s-2.07-4.64-2.55-5.86c-.36-.92-3.62-8.3-8-8.78m0-2,.21,0c2.43.27,4.76,2,6.92,5.07a27.57,27.57,0,0,1,2.71,5c.11.26.24.64.41,1.07.3.83,1,2.8,1.48,3.74a7.49,7.49,0,0,1,1.85.39,4,4,0,0,1,2.24,1.89,7.61,7.61,0,0,1,.56,4.73,7.13,7.13,0,0,1-2,4,10.08,10.08,0,0,1-1.46,1,2.13,2.13,0,0,0-1.16,1.4c-1.87,4.76-6.14,9.06-9.51,11.5a10.46,10.46,0,0,1-5.76,1.7,8.36,8.36,0,0,1-3.44-.7,18.26,18.26,0,0,1-7.55-5.82,16.25,16.25,0,0,1-2.87-6.76,24.49,24.49,0,0,1,.41-9.81,29.21,29.21,0,0,1,4.14-10,21,21,0,0,1,5.51-5.59,16.59,16.59,0,0,1,7.08-2.87Z"/></g><circle id="타원_2293" data-name="타원 2293" class="cls-7" cx="377.59" cy="199.23" r="1.8"/><circle id="타원_2294" data-name="타원 2294" class="cls-7" cx="391.87" cy="199.23" r="1.8"/><circle id="타원_2295" data-name="타원 2295" class="cls-7" cx="384.99" cy="207.44" r="0.82"/><path id="패스_315" data-name="패스 315" class="cls-10" d="M382.3,212.45a10.53,10.53,0,0,1,4.93,0"/><path id="패스_316" data-name="패스 316" class="cls-10" d="M376.06,194a7.37,7.37,0,0,1,2.73,0"/><path id="패스_317" data-name="패스 317" class="cls-10" d="M393.51,194a7,7,0,0,0-2.73,0"/><circle id="타원_2296" data-name="타원 2296" class="cls-1" cx="400.95" cy="206.62" r="1.26"/><g class="cls-2"><text class="cls-6" transform="translate(17.02 234.41)">10%</text></g><path id="패스_290" data-name="패스 290" class="cls-7" d="M101.87,213.71C104,211.56,111.33,213,112,217c.72,4.42-1,7.34-3.46,7.85-3.6.75-7.94-3.33-8.57-4.92C99.14,217.85,100.84,214.75,101.87,213.71Z"/><path id="패스_295" data-name="패스 295" class="cls-7" d="M93.7,172a18.35,18.35,0,0,0-17.26,11c-6.74,14.39-1.39,29.49,2.68,34.12,2.39,2.72,4.41,1.92,6.3,1.55l2.39-.2,1.52-2,5.4-1.23c.08,0,6.25-.76,6.25-.76l2.77-.8s.86,1.64,2.24,1.4c3.5-.63,6.45-6.2,7-13,1.19-14.34-2.42-21-6-24.8C104,174.13,100.61,172.19,93.7,172Z"/><path id="패스_318" data-name="패스 318" class="cls-1" d="M87.22,256.59h16.32l2.25-16.94s-1.12-14.47-1.12-14.54-1.35-3.93-1.35-3.93l-1-4.4-.42-3.07-7.12,1.56-4.6.36-1.25.21s-.66,2-.68,2.21-1.94,5.24-1.94,5.24-.92,9-.92,9.1.36,10.45.36,10.45Z"/><path id="패스_319" data-name="패스 319" class="cls-8" d="M106.43,223l3.89,2.6,9.05,4,4,2.34,2.27,2.47,2.27,9.32.8,13.08H103.16l.47-6.67.58-4.94.2-7.56.67-8.12-1-8.26Z"/><path id="패스_320" data-name="패스 320" class="cls-8" d="M87.07,256.72l-.72-10.32-.67-8.7-.41-8.29.86-8.79-6.64,5.08-8.68,4L65,233.37l-2.8,10.37-1.46,13Z"/><path id="패스_321" data-name="패스 321" class="cls-9" d="M61,256.75s1.24-20.5,4.31-23.7c3.25-3.39,14.31-7.57,15.78-8.21"/><path id="패스_322" data-name="패스 322" class="cls-9" d="M87.76,218.52s-8.48,7-11,12.41l2.78,3.21s-1.87,2.31-2.78,3.5c0,0,.91,6.12,5.27,19.11"/><path id="패스_323" data-name="패스 323" class="cls-9" d="M69.25,230.57a250,250,0,0,1,2.84,26.18"/><path id="패스_324" data-name="패스 324" class="cls-10" d="M88.09,216.6s.24,4.2-1.86,6.91"/><path id="패스_325" data-name="패스 325" class="cls-9" d="M86.81,219.34a15.8,15.8,0,0,0-1.45,6.27c0,3.5.87,24.77,2.06,31.14"/><path id="패스_326" data-name="패스 326" class="cls-10" d="M102.08,212.35c0,.73,0,8.78,2.45,11.58"/><path id="패스_327" data-name="패스 327" class="cls-9" d="M103,218.9s7.9,7.71,9.87,12.12c0,0-2.25,3.34-2.54,3.73s2.4,2.74,3.45,3.6c0,0-3.5,11-5.65,18.4"/><path id="패스_328" data-name="패스 328" class="cls-9" d="M103.42,220.27s1.44,1.7,1.39,5.82-1,17.77-2,30.66"/><path id="패스_329" data-name="패스 329" class="cls-9" d="M85.6,233.64a38.83,38.83,0,0,0,18.86,0"/><path id="패스_330" data-name="패스 330" class="cls-9" d="M108,224.13s12.65,5.36,15,6.89a9.8,9.8,0,0,1,4.12,6c.39,2.06,1.87,14.9,2.2,19.69"/><path id="패스_331" data-name="패스 331" class="cls-9" d="M117.94,256.75S119.33,233.81,121,230"/><g id="패스_350" data-name="패스 350"><path class="cls-1" d="M89.18,219a8.6,8.6,0,0,1-3.15-.6l-.59-.22a16.41,16.41,0,0,1-3.85-1.87,12.15,12.15,0,0,1-4-4.73,26.5,26.5,0,0,1-2-7.62,46.18,46.18,0,0,1-.3-9.11,10.49,10.49,0,0,1,1.47-4.41,20.87,20.87,0,0,1,3.1-4.08,26.38,26.38,0,0,1,8.09-5.8,16.26,16.26,0,0,1,3.19-1l.31-.06.29.14c1.57.75,3.21,2.44,4.88,5.05a30.12,30.12,0,0,1,2.36,4.37,72.76,72.76,0,0,0,4,7.34l.54-.11a10.57,10.57,0,0,1,2.19-.29,3.68,3.68,0,0,1,3.2,1.52,5.54,5.54,0,0,1,.55,5.3,8.68,8.68,0,0,1-2.29,3.48c-.48.41-.87.71-1.21,1a13.65,13.65,0,0,0-2.24,2.09,39.27,39.27,0,0,1-11,8.76A8,8,0,0,1,89.18,219Z"/><path class="cls-7" d="M91.38,180.61a15.71,15.71,0,0,0-3,.89c-5,2.14-11.67,8.24-12,13.45-.41,5.57.48,12.76,2.15,16.21,2.26,4.65,6,5.6,7.88,6.33a7.69,7.69,0,0,0,2.79.53,7,7,0,0,0,3.15-.72A38.49,38.49,0,0,0,103,208.78a23.7,23.7,0,0,1,3.55-3.18c1.22-1,3.59-4.62,1.58-7.44a2.74,2.74,0,0,0-2.39-1.1c-1.19,0-2.38.43-2.94.43a.55.55,0,0,1-.25-.05c-.6-.36-4-6.74-4.47-8-.36-.91-3.45-7.31-6.74-8.87m.28-2.09.58.28c1.74.82,3.52,2.64,5.29,5.41a31,31,0,0,1,2.45,4.54c.35.88,2.49,4.92,3.54,6.59a10.88,10.88,0,0,1,2.26-.28,4.66,4.66,0,0,1,4,1.94,6.62,6.62,0,0,1,.67,6.22,9.8,9.8,0,0,1-2.58,3.89c-.49.43-.89.74-1.25,1a12.6,12.6,0,0,0-2.09,2,40,40,0,0,1-11.32,9,9,9,0,0,1-4,.94,9.73,9.73,0,0,1-3.52-.67l-.57-.21a13.63,13.63,0,0,1-8.38-7.1c-1.79-3.69-2.8-11.1-2.35-17.24.27-3.63,2.78-7,4.84-9.11a27.33,27.33,0,0,1,8.43-6,17.48,17.48,0,0,1,3.4-1Z"/></g><circle id="타원_2301" data-name="타원 2301" class="cls-11" cx="80.31" cy="197.92" r="1.8"/><circle id="타원_2302" data-name="타원 2302" class="cls-11" cx="93.36" cy="197.92" r="1.8"/><ellipse id="타원_2303" data-name="타원 2303" class="cls-11" cx="84.66" cy="206.42" rx="0.94" ry="0.82"/><path id="패스_351" data-name="패스 351" class="cls-10" d="M84.1,211.64s1.37-1.89,3.66,0"/><path id="패스_352" data-name="패스 352" class="cls-10" d="M93.91,192.31s-2,.94-3.16,0"/><path id="패스_353" data-name="패스 353" class="cls-10" d="M78.43,192.52s1.72,1,2.58,0"/><circle id="타원_2304" data-name="타원 2304" class="cls-1" cx="106.37" cy="209.18" r="1.26"/><g class="cls-2"><text class="cls-6" transform="translate(163.75 234.71)">15%</text></g><path id="패스_276" data-name="패스 276" class="cls-7" d="M247.55,212.39c2.15-2.15,11-1,11.66,3.06.73,4.42-1,7.34-3.46,7.86-3.6.74-7.93-3.33-8.56-4.93C246.37,216.31,246.51,213.43,247.55,212.39Z"/><path id="패스_287" data-name="패스 287" class="cls-7" d="M241.54,172.09s-11.67-.91-17.19,10.25c-6.64,13.46-1.21,27.65,2.89,32,2.41,2.57,4.42,1.82,6.3,1.49l2.39-.17-1.59,1.41,3.49-.64,9.64-1.8.33,1.34a18.28,18.28,0,0,0,5.24-2c3.14-1.64,7.45-7.15,8-13.53,1.11-13.44-5.29-19.9-8.5-23A20.31,20.31,0,0,0,241.54,172.09Z"/><path id="패스_332" data-name="패스 332" class="cls-1" d="M231.41,256.59h16.32L250,239.65s-1.12-14.47-1.12-14.54-1.35-3.92-1.35-3.92l-1-4.42-.42-3.06-7.12,1.56-4.6.35-1.25.22s-.66,2-.68,2.21-1.95,5.24-1.95,5.24-.91,9-.91,9.1.36,10.44.36,10.44Z"/><path id="패스_333" data-name="패스 333" class="cls-8" d="M251,223l3.89,2.6,9,4,4,2.34,2.28,2.47,2.27,9.32.8,13.09H247.75l.47-6.68.58-4.93.2-7.56.67-8.13-1-8.26Z"/><path id="패스_334" data-name="패스 334" class="cls-8" d="M231.65,256.73l-.72-10.33-.66-8.7-.41-8.28.86-8.8-6.65,5.08-8.67,4-5.78,3.68-2.81,10.37-1.46,13Z"/><path id="패스_335" data-name="패스 335" class="cls-9" d="M205.57,256.75s1.24-20.5,4.31-23.7c3.25-3.38,14.31-7.57,15.78-8.21"/><path id="패스_336" data-name="패스 336" class="cls-9" d="M232.35,218.52s-8.48,7-11,12.41l2.78,3.21s-1.87,2.31-2.78,3.5c0,0,.91,6.13,5.27,19.11"/><path id="패스_337" data-name="패스 337" class="cls-9" d="M213.84,230.57a252.67,252.67,0,0,1,2.84,26.18"/><path id="패스_338" data-name="패스 338" class="cls-10" d="M232.68,216.6s.24,4.2-1.87,6.92"/><path id="패스_339" data-name="패스 339" class="cls-9" d="M231.39,219.34a16,16,0,0,0-1.44,6.27c0,3.5.86,24.77,2.06,31.14"/><path id="패스_340" data-name="패스 340" class="cls-10" d="M247,215.5s-.82,5.7,2.11,8.43"/><path id="패스_341" data-name="패스 341" class="cls-9" d="M247.64,218.9s7.9,7.72,9.86,12.12c0,0-2.25,3.34-2.53,3.73s2.4,2.74,3.44,3.6c0,0-3.5,11-5.65,18.4"/><path id="패스_342" data-name="패스 342" class="cls-9" d="M248,220.28s1.44,1.69,1.39,5.81-1,17.77-2,30.66"/><path id="패스_343" data-name="패스 343" class="cls-9" d="M230.19,233.64a38.83,38.83,0,0,0,18.86,0"/><path id="패스_344" data-name="패스 344" class="cls-9" d="M252.55,224.13s12.66,5.36,15,6.89a9.8,9.8,0,0,1,4.12,6c.38,2.06,1.87,14.9,2.2,19.69"/><path id="패스_345" data-name="패스 345" class="cls-9" d="M262.53,256.75s1.38-22.94,3.06-26.77"/><g id="패스_346" data-name="패스 346"><path class="cls-1" d="M239.43,219.59h0a7.43,7.43,0,0,1-3-.6,17.54,17.54,0,0,1-7.15-5.5c-3-4.05-3.74-9.35-2.29-15.76a28.1,28.1,0,0,1,4-9.63,19.85,19.85,0,0,1,5.24-5.33,15.61,15.61,0,0,1,6.61-2.7H243c5.28.59,8.77,9.32,8.81,9.41.1.25.24.63.39,1.06.3.8.67,1.81,1,2.69a10.8,10.8,0,0,0,.76,1.62l.48.06c1,.12,2.57.3,3.35,1.77a6.54,6.54,0,0,1,.46,4.09,6,6,0,0,1-1.63,3.43,10,10,0,0,1-1.33.94,3.06,3.06,0,0,0-1.57,1.89c-1.8,4.56-5.92,8.7-9.17,11.06A9.5,9.5,0,0,1,239.43,219.59Z"/><path class="cls-7" d="M242.9,181.07s-11.4,1.12-15,16.88c-3.25,14.33,5.95,18.81,8.87,20.12a6.43,6.43,0,0,0,2.63.52,8.5,8.5,0,0,0,4.58-1.31c3.25-2.35,7.15-6.35,8.83-10.62.88-2.23,1.74-2,3.17-3.22,1.23-1.05,1.94-4.43.95-6.29-.79-1.47-2.91-1.09-3.52-1.45s-2.07-4.63-2.55-5.85c-.36-.92-3.63-8.3-8-8.78m0-2,.21,0c2.43.27,4.76,2,6.92,5.07a27.57,27.57,0,0,1,2.71,5c.1.26.24.63.4,1.07.31.83,1,2.8,1.49,3.73a8,8,0,0,1,1.85.39,4,4,0,0,1,2.23,1.9,7.62,7.62,0,0,1,.57,4.73,7.2,7.2,0,0,1-2,4,11.61,11.61,0,0,1-1.46,1,2.1,2.1,0,0,0-1.16,1.4c-1.88,4.75-6.14,9.06-9.51,11.5a10.48,10.48,0,0,1-5.76,1.69,8.4,8.4,0,0,1-3.45-.69,18.3,18.3,0,0,1-7.54-5.82,16.26,16.26,0,0,1-2.88-6.76,24.49,24.49,0,0,1,.41-9.81,29.42,29.42,0,0,1,4.15-10,20.8,20.8,0,0,1,5.51-5.59,16.57,16.57,0,0,1,7.07-2.87Z"/></g><circle id="타원_2297" data-name="타원 2297" class="cls-7" cx="232.35" cy="199.14" r="1.8"/><circle id="타원_2298" data-name="타원 2298" class="cls-7" cx="246.62" cy="199.14" r="1.8"/><circle id="타원_2299" data-name="타원 2299" class="cls-7" cx="239.75" cy="207.35" r="0.82"/><circle id="타원_2300" data-name="타원 2300" class="cls-1" cx="255.7" cy="206.54" r="1.26"/><path id="패스_347" data-name="패스 347" class="cls-7" d="M239.62,211.33a3.15,3.15,0,0,0-3.14,1.87,1.8,1.8,0,0,0,1.56,2h0c1.22.19,4.92,0,5-1.19C243.23,212.59,240.93,211.36,239.62,211.33Z"/><path id="패스_348" data-name="패스 348" class="cls-10" d="M230.81,194.2a4.1,4.1,0,0,0,3-.38"/><path id="패스_349" data-name="패스 349" class="cls-10" d="M248.53,194.13a3.76,3.76,0,0,0-3-.31"/><path id="패스_275" data-name="패스 275" class="cls-11" d="M361.79,73.12c4-4,20.29-1.78,21.51,5.64,1.34,8.15-1.78,13.54-6.38,14.49-6.63,1.37-14.63-6.14-15.8-9.09C359.62,80.35,359.89,75,361.79,73.12Z"/><path id="패스_277" data-name="패스 277" class="cls-1" d="M335,155.4h30.1l4.16-31.24s-2.07-26.68-2.07-26.81-2.49-7.25-2.49-7.25L362.82,82l-.77-5.65-13.14,2.87-8.48.66-2.3.4s-1.21,3.73-1.26,4.08S333.29,94,333.29,94s-1.69,16.66-1.69,16.79.66,19.26.66,19.26Z"/><path id="패스_278" data-name="패스 278" class="cls-8" d="M371.16,93.09l16,7.78,7.86,4.34,7.44,4.32,4.93,4.1,3.55,23.48,1.37,18.29H365.12l.87-12.3,1.08-9.11.36-13.94V105.47l-2.88-17.24Z"/><path id="패스_279" data-name="패스 279" class="cls-8" d="M335,155.4l-1.33-19-1.22-16L331.71,105l3.5-18.19-16,12.21L305,105.55,295,111.09l-5.75,20.37-2.68,23.94Z"/><path id="패스_280" data-name="패스 280" class="cls-12" d="M326.56,94.18c-4.53,3.4-25.42,12.32-31.08,15.72s-8.82,43-9,45.16"/><path id="패스_281" data-name="패스 281" class="cls-12" d="M308.59,154.49s-3.44-37.7-5.51-48.39"/><path id="패스_282" data-name="패스 282" class="cls-12" d="M412.15,155.06s-1.7-36.79-5.09-42.44-32.22-17.55-32.22-17.55"/><path id="패스_283" data-name="패스 283" class="cls-12" d="M335.92,84.16s-13.22,13.3-19.1,23.37a.85.85,0,0,0,.14,1l4.43,4.43a1.09,1.09,0,0,1,0,1.55h0l-6,6c-2.27,2.26,10.18,31.69,11.32,34"/><path id="패스_284" data-name="패스 284" class="cls-12" d="M364.55,87.89a46.83,46.83,0,0,1,19.3,19.63,72.59,72.59,0,0,1-5.66,6.1,1.06,1.06,0,0,0-.14,1.49.8.8,0,0,0,.13.13c1.71,1.45,4.86,4.24,5.67,5.86,1.13,2.27-9.06,31.69-10.19,34"/><path id="패스_285" data-name="패스 285" class="cls-12" d="M397.55,106.1s-6.34,39.43-6.34,48.39"/><path id="패스_286" data-name="패스 286" class="cls-11" d="M343.11,0s-21.59.41-29.7,21.89c-9.79,25.89,3.2,49.65,11.5,56.94,4.87,4.27,8,3.87,11.37,2.92l4.35-.74L338,83.88l6.3-1.79,17.38-5,.84,2.39s3.32-.8,9.26-4.67c5.48-3.57,12.39-14.45,12.2-26.26C383.56,23.66,370.66,13,364.21,7.88,358.11,3.08,349.53,0,343.11,0Z"/><path id="패스_291" data-name="패스 291" class="cls-12" d="M335.24,154.71s-3.95-53.35-2.26-60,2.55-8.92,3.48-11.86"/><path id="패스_292" data-name="패스 292" class="cls-12" d="M365.12,155.06s2.26-29.87,2.31-42.06-1.88-20.25-2.88-23.46c-1.52-4.87-1.85-14-1.7-17.11"/><path id="패스_293" data-name="패스 293" class="cls-12" d="M332.8,113s19.35,6.58,34.63-.3"/><g id="패스_294" data-name="패스 294"><path class="cls-1" d="M347.91,85.25c-7.33,0-13.28-4.69-17.64-8.78-3.69-3.46-6.57-9.85-7.9-17.53a53.26,53.26,0,0,1-.72-11.18A40.57,40.57,0,0,1,323.51,37a37,37,0,0,1,5.93-11.15,39.76,39.76,0,0,1,7.35-7.25,37.1,37.1,0,0,1,9-5.15l.5-.17.49.16a23.29,23.29,0,0,1,6.63,3.73,46.55,46.55,0,0,1,5.8,5.47,106,106,0,0,1,8.5,11.06c.82,1.18,1.73,2.49,2.15,3l.68,0a9,9,0,0,1,4.2.87c1.55.87,2.57,3.29,2.85,4a11.08,11.08,0,0,1,.69,5.94c-.82,4.09-2.19,5.63-3.41,6.76-.87.8-1.48,1.28-1.93,1.63s-.59.47-.64.59a13.58,13.58,0,0,0-.52,2.12l0,.07c-.2,1-2.09,9.6-6.09,15.53a30.26,30.26,0,0,1-6.72,7A22.88,22.88,0,0,1,354,84a15.72,15.72,0,0,1-5.8,1.24Z"/><path class="cls-11" d="M346.28,14.85s-15.76,5.63-21.34,22.61c-4.2,12.79-.82,31.19,6.35,37.92,4,3.71,9.66,8.37,16.62,8.37h.23c7.28-.1,13.69-6.56,16.26-10.38,3.6-5.32,5.46-13,5.87-15,.79-3.76.48-2.37,3.56-5.2,1.11-1,2.23-2.31,3-6,.67-3.28-1.38-7.56-2.81-8.36-1.72-1-4.28-.47-4.88-.84-1.64-1-11.45-19.29-22.82-23.16m0-3.17,1,.33c9.48,3.23,17.42,14.67,21.69,20.83.58.84,1.22,1.76,1.65,2.35a10.24,10.24,0,0,1,4.88,1.05c1.93,1.08,3.1,3.71,3.51,4.79a12.64,12.64,0,0,1,.76,6.78c-.82,4.07-2.14,6-3.87,7.56-.91.85-1.57,1.37-2,1.71l-.26.21c-.09.33-.23,1-.37,1.63V59c-.34,1.63-2.24,10-6.32,16.07a31.42,31.42,0,0,1-7.06,7.31,24.5,24.5,0,0,1-5.31,3,17.32,17.32,0,0,1-6.34,1.35h-.27c-7.86,0-14.1-4.91-18.67-9.18a24.09,24.09,0,0,1-5.3-7.95,46.22,46.22,0,0,1-3.05-10.42,55,55,0,0,1-.74-11.5,41.57,41.57,0,0,1,1.94-11.18,38.35,38.35,0,0,1,6.17-11.6,41.45,41.45,0,0,1,7.62-7.52A38.1,38.1,0,0,1,345.27,12Z"/></g><path id="패스_296" data-name="패스 296" class="cls-13" d="M326.39,42.22a5.35,5.35,0,0,1,6.28-1.64"/><path id="패스_297" data-name="패스 297" class="cls-13" d="M353.3,37.2s1.94-3.12,6.58-1.49"/><circle id="타원_2289" data-name="타원 2289" class="cls-11" cx="331.71" cy="50.53" r="3.31"/><circle id="타원_2290" data-name="타원 2290" class="cls-11" cx="358.32" cy="45.22" r="3.31"/><circle id="타원_2291" data-name="타원 2291" class="cls-11" cx="347.14" cy="62.63" r="1.51"/><path id="패스_298" data-name="패스 298" class="cls-11" d="M343.91,69.46s8.6-3.2,10-2c2.58,2.2-2.12,8.23-4.2,8.53C346.58,76.42,341.18,70.6,343.91,69.46Z"/><circle id="타원_2292" data-name="타원 2292" class="cls-1" cx="375.26" cy="57.47" r="2.33"/><path id="패스_299" data-name="패스 299" class="cls-13" d="M337.12,82s-.76,10.6-3.83,13.23"/><path id="제외_25" data-name="제외 25" class="cls-4" d="M314.5,256.53a25.48,25.48,0,1,1,9.93-2h0A25.28,25.28,0,0,1,314.5,256.53Zm0-47.82A22.33,22.33,0,1,0,336.82,231,22.32,22.32,0,0,0,314.5,208.71Z"/><path id="제외_26" data-name="제외 26" class="cls-4" d="M171.5,256.53a25.48,25.48,0,1,1,9.93-2h0A25.28,25.28,0,0,1,171.5,256.53Zm0-47.82A22.33,22.33,0,1,0,193.82,231,22.32,22.32,0,0,0,171.5,208.71Z"/><path id="제외_27" data-name="제외 27" class="cls-4" d="M25.5,256.53a25.48,25.48,0,1,1,9.93-2h0A25.28,25.28,0,0,1,25.5,256.53Zm0-47.82A22.33,22.33,0,1,0,47.82,231,22.32,22.32,0,0,0,25.5,208.71Z"/><path id="교차_26" data-name="교차 26" class="cls-14" d="M314,253.29a22.78,22.78,0,0,0,22.76-22.76H340a26,26,0,0,1-26,26Z"/><path id="교차_27" data-name="교차 27" class="cls-14" d="M171,253.29a22.78,22.78,0,0,0,22.76-22.76H197a26,26,0,0,1-26,26Z"/><path id="빼기_75" data-name="빼기 75" class="cls-14" d="M38.78,252.81h0L37.14,250a22.68,22.68,0,0,0,10.7-19.57l3.21-.05a25.61,25.61,0,0,1-7.23,18.33,26.24,26.24,0,0,1-5,4.06Z"/><g id="긍정적" class="cls-2"><text class="cls-15" transform="translate(0 12.53)">긍정적</text><text class="cls-16" transform="translate(27 12.53)"><tspan xml:space="preserve">  </tspan></text><text class="cls-17" transform="translate(31.8 12.53)">50%</text></g><g id="무표정" class="cls-2"><text class="cls-18" transform="translate(0 75.53)">무표정</text><text class="cls-19" transform="translate(27 75.53)"><tspan xml:space="preserve">  </tspan></text><text class="cls-20" transform="translate(31.8 75.53)">25%</text></g><g id="부정적" class="cls-2"><text class="cls-18" transform="translate(0 33.53)">부정적</text><text class="cls-19" transform="translate(27 33.53)"><tspan xml:space="preserve">  </tspan></text><text class="cls-20" transform="translate(31.8 33.53)">10%</text></g><g id="당황함" class="cls-2"><text class="cls-18" transform="translate(0 54.53)">당황함</text><text class="cls-19" transform="translate(27 54.53)"><tspan xml:space="preserve">  </tspan></text><text class="cls-20" transform="translate(31.8 54.53)">15%</text></g><rect id="사각형_5831" data-name="사각형 5831" class="cls-5" x="78" y="8.53" width="74" height="4"/><rect id="사각형_5832" data-name="사각형 5832" class="cls-7" x="78" y="29.53" width="18" height="4"/><rect id="사각형_5833" data-name="사각형 5833" class="cls-7" x="78" y="50.53" width="24" height="4"/><rect id="사각형_5834" data-name="사각형 5834" class="cls-7" x="78" y="71.53" width="36" height="4"/></g></g></svg>