<svg xmlns="http://www.w3.org/2000/svg" xmlns:xlink="http://www.w3.org/1999/xlink" viewBox="0 0 386 258"><defs><style>.cls-1,.cls-10,.cls-14,.cls-15{fill:none;}.cls-2{clip-path:url(#clip-path);}.cls-3{opacity:0.7;}.cls-4{fill:#333;}.cls-5{clip-path:url(#clip-path-2);}.cls-6{fill:#daf3f5;opacity:0.5;}.cls-16,.cls-17,.cls-6{isolation:isolate;}.cls-13,.cls-7,.cls-8{fill:#fff;}.cls-10,.cls-12,.cls-14,.cls-15,.cls-8{stroke:#3b3b46;}.cls-10,.cls-12,.cls-13,.cls-14,.cls-15,.cls-8{stroke-miterlimit:10;}.cls-10,.cls-12,.cls-15,.cls-8{stroke-width:2px;}.cls-9{fill:#cae6ed;}.cls-10,.cls-12,.cls-13{stroke-linecap:round;}.cls-11{fill:#3b3b46;}.cls-12{fill:#fff278;}.cls-13{stroke:#333;}.cls-13,.cls-14{stroke-width:3px;}.cls-16{fill:#13d3db;}.cls-16,.cls-17{opacity:0.6;}.cls-17{fill:#059bc2;}</style><clipPath id="clip-path"><rect class="cls-1" x="193" width="2" height="258"/></clipPath><clipPath id="clip-path-2"><rect class="cls-1" y="128" width="389" height="2"/></clipPath></defs><g id="레이어_2" data-name="레이어 2"><g id="레이어_1-2" data-name="레이어 1"><g class="cls-2"><g id="반복_그리드_12" data-name="반복 그리드 12" class="cls-3"><circle id="타원_1282" data-name="타원 1282" class="cls-4" cx="194" cy="1" r="1"/><circle id="타원_1282-2" data-name="타원 1282-2" class="cls-4" cx="194" cy="5" r="1"/><circle id="타원_1282-3" data-name="타원 1282-3" class="cls-4" cx="194" cy="9" r="1"/><circle id="타원_1282-4" data-name="타원 1282-4" class="cls-4" cx="194" cy="13" r="1"/><circle id="타원_1282-5" data-name="타원 1282-5" class="cls-4" cx="194" cy="17" r="1"/><circle id="타원_1282-6" data-name="타원 1282-6" class="cls-4" cx="194" cy="21" r="1"/><circle id="타원_1282-7" data-name="타원 1282-7" class="cls-4" cx="194" cy="25" r="1"/><circle id="타원_1282-8" data-name="타원 1282-8" class="cls-4" cx="194" cy="29" r="1"/><circle id="타원_1282-9" data-name="타원 1282-9" class="cls-4" cx="194" cy="33" r="1"/><circle id="타원_1282-10" data-name="타원 1282-10" class="cls-4" cx="194" cy="37" r="1"/><circle id="타원_1282-11" data-name="타원 1282-11" class="cls-4" cx="194" cy="41" r="1"/><circle id="타원_1282-12" data-name="타원 1282-12" class="cls-4" cx="194" cy="45" r="1"/><circle id="타원_1282-13" data-name="타원 1282-13" class="cls-4" cx="194" cy="49" r="1"/><circle id="타원_1282-14" data-name="타원 1282-14" class="cls-4" cx="194" cy="53" r="1"/><circle id="타원_1282-15" data-name="타원 1282-15" class="cls-4" cx="194" cy="57" r="1"/><circle id="타원_1282-16" data-name="타원 1282-16" class="cls-4" cx="194" cy="61" r="1"/><circle id="타원_1282-17" data-name="타원 1282-17" class="cls-4" cx="194" cy="65" r="1"/><circle id="타원_1282-18" data-name="타원 1282-18" class="cls-4" cx="194" cy="69" r="1"/><circle id="타원_1282-19" data-name="타원 1282-19" class="cls-4" cx="194" cy="73" r="1"/><circle id="타원_1282-20" data-name="타원 1282-20" class="cls-4" cx="194" cy="77" r="1"/><circle id="타원_1282-21" data-name="타원 1282-21" class="cls-4" cx="194" cy="81" r="1"/><circle id="타원_1282-22" data-name="타원 1282-22" class="cls-4" cx="194" cy="85" r="1"/><circle id="타원_1282-23" data-name="타원 1282-23" class="cls-4" cx="194" cy="89" r="1"/><circle id="타원_1282-24" data-name="타원 1282-24" class="cls-4" cx="194" cy="93" r="1"/><circle id="타원_1282-25" data-name="타원 1282-25" class="cls-4" cx="194" cy="97" r="1"/><circle id="타원_1282-26" data-name="타원 1282-26" class="cls-4" cx="194" cy="101" r="1"/><circle id="타원_1282-27" data-name="타원 1282-27" class="cls-4" cx="194" cy="105" r="1"/><circle id="타원_1282-28" data-name="타원 1282-28" class="cls-4" cx="194" cy="109" r="1"/><circle id="타원_1282-29" data-name="타원 1282-29" class="cls-4" cx="194" cy="113" r="1"/><circle id="타원_1282-30" data-name="타원 1282-30" class="cls-4" cx="194" cy="117" r="1"/><circle id="타원_1282-31" data-name="타원 1282-31" class="cls-4" cx="194" cy="121" r="1"/><circle id="타원_1282-32" data-name="타원 1282-32" class="cls-4" cx="194" cy="125" r="1"/><circle id="타원_1282-33" data-name="타원 1282-33" class="cls-4" cx="194" cy="129" r="1"/><circle id="타원_1282-34" data-name="타원 1282-34" class="cls-4" cx="194" cy="133" r="1"/><circle id="타원_1282-35" data-name="타원 1282-35" class="cls-4" cx="194" cy="137" r="1"/><circle id="타원_1282-36" data-name="타원 1282-36" class="cls-4" cx="194" cy="141" r="1"/><circle id="타원_1282-37" data-name="타원 1282-37" class="cls-4" cx="194" cy="145" r="1"/><circle id="타원_1282-38" data-name="타원 1282-38" class="cls-4" cx="194" cy="149" r="1"/><circle id="타원_1282-39" data-name="타원 1282-39" class="cls-4" cx="194" cy="153" r="1"/><circle id="타원_1282-40" data-name="타원 1282-40" class="cls-4" cx="194" cy="157" r="1"/><circle id="타원_1282-41" data-name="타원 1282-41" class="cls-4" cx="194" cy="161" r="1"/><circle id="타원_1282-42" data-name="타원 1282-42" class="cls-4" cx="194" cy="165" r="1"/><circle id="타원_1282-43" data-name="타원 1282-43" class="cls-4" cx="194" cy="169" r="1"/><circle id="타원_1282-44" data-name="타원 1282-44" class="cls-4" cx="194" cy="173" r="1"/><circle id="타원_1282-45" data-name="타원 1282-45" class="cls-4" cx="194" cy="177" r="1"/><circle id="타원_1282-46" data-name="타원 1282-46" class="cls-4" cx="194" cy="181" r="1"/><circle id="타원_1282-47" data-name="타원 1282-47" class="cls-4" cx="194" cy="185" r="1"/><circle id="타원_1282-48" data-name="타원 1282-48" class="cls-4" cx="194" cy="189" r="1"/><circle id="타원_1282-49" data-name="타원 1282-49" class="cls-4" cx="194" cy="193" r="1"/><circle id="타원_1282-50" data-name="타원 1282-50" class="cls-4" cx="194" cy="197" r="1"/><circle id="타원_1282-51" data-name="타원 1282-51" class="cls-4" cx="194" cy="201" r="1"/><circle id="타원_1282-52" data-name="타원 1282-52" class="cls-4" cx="194" cy="205" r="1"/><circle id="타원_1282-53" data-name="타원 1282-53" class="cls-4" cx="194" cy="209" r="1"/><circle id="타원_1282-54" data-name="타원 1282-54" class="cls-4" cx="194" cy="213" r="1"/><circle id="타원_1282-55" data-name="타원 1282-55" class="cls-4" cx="194" cy="217" r="1"/><circle id="타원_1282-56" data-name="타원 1282-56" class="cls-4" cx="194" cy="221" r="1"/><circle id="타원_1282-57" data-name="타원 1282-57" class="cls-4" cx="194" cy="225" r="1"/><circle id="타원_1282-58" data-name="타원 1282-58" class="cls-4" cx="194" cy="229" r="1"/><circle id="타원_1282-59" data-name="타원 1282-59" class="cls-4" cx="194" cy="233" r="1"/><circle id="타원_1282-60" data-name="타원 1282-60" class="cls-4" cx="194" cy="237" r="1"/><circle id="타원_1282-61" data-name="타원 1282-61" class="cls-4" cx="194" cy="241" r="1"/><circle id="타원_1282-62" data-name="타원 1282-62" class="cls-4" cx="194" cy="245" r="1"/><circle id="타원_1282-63" data-name="타원 1282-63" class="cls-4" cx="194" cy="249" r="1"/><circle id="타원_1282-64" data-name="타원 1282-64" class="cls-4" cx="194" cy="253" r="1"/><circle id="타원_1282-65" data-name="타원 1282-65" class="cls-4" cx="194" cy="257" r="1"/></g></g><g class="cls-5"><g id="반복_그리드_13" data-name="반복 그리드 13" class="cls-3"><circle id="타원_1283" data-name="타원 1283" class="cls-4" cx="1" cy="129" r="1"/><circle id="타원_1283-2" data-name="타원 1283-2" class="cls-4" cx="5" cy="129" r="1"/><circle id="타원_1283-3" data-name="타원 1283-3" class="cls-4" cx="9" cy="129" r="1"/><circle id="타원_1283-4" data-name="타원 1283-4" class="cls-4" cx="13" cy="129" r="1"/><circle id="타원_1283-5" data-name="타원 1283-5" class="cls-4" cx="17" cy="129" r="1"/><circle id="타원_1283-6" data-name="타원 1283-6" class="cls-4" cx="21" cy="129" r="1"/><circle id="타원_1283-7" data-name="타원 1283-7" class="cls-4" cx="25" cy="129" r="1"/><circle id="타원_1283-8" data-name="타원 1283-8" class="cls-4" cx="29" cy="129" r="1"/><circle id="타원_1283-9" data-name="타원 1283-9" class="cls-4" cx="33" cy="129" r="1"/><circle id="타원_1283-10" data-name="타원 1283-10" class="cls-4" cx="37" cy="129" r="1"/><circle id="타원_1283-11" data-name="타원 1283-11" class="cls-4" cx="41" cy="129" r="1"/><circle id="타원_1283-12" data-name="타원 1283-12" class="cls-4" cx="45" cy="129" r="1"/><circle id="타원_1283-13" data-name="타원 1283-13" class="cls-4" cx="49" cy="129" r="1"/><circle id="타원_1283-14" data-name="타원 1283-14" class="cls-4" cx="53" cy="129" r="1"/><circle id="타원_1283-15" data-name="타원 1283-15" class="cls-4" cx="57" cy="129" r="1"/><circle id="타원_1283-16" data-name="타원 1283-16" class="cls-4" cx="61" cy="129" r="1"/><circle id="타원_1283-17" data-name="타원 1283-17" class="cls-4" cx="65" cy="129" r="1"/><circle id="타원_1283-18" data-name="타원 1283-18" class="cls-4" cx="69" cy="129" r="1"/><circle id="타원_1283-19" data-name="타원 1283-19" class="cls-4" cx="73" cy="129" r="1"/><circle id="타원_1283-20" data-name="타원 1283-20" class="cls-4" cx="77" cy="129" r="1"/><circle id="타원_1283-21" data-name="타원 1283-21" class="cls-4" cx="81" cy="129" r="1"/><circle id="타원_1283-22" data-name="타원 1283-22" class="cls-4" cx="85" cy="129" r="1"/><circle id="타원_1283-23" data-name="타원 1283-23" class="cls-4" cx="89" cy="129" r="1"/><circle id="타원_1283-24" data-name="타원 1283-24" class="cls-4" cx="93" cy="129" r="1"/><circle id="타원_1283-25" data-name="타원 1283-25" class="cls-4" cx="97" cy="129" r="1"/><circle id="타원_1283-26" data-name="타원 1283-26" class="cls-4" cx="101" cy="129" r="1"/><circle id="타원_1283-27" data-name="타원 1283-27" class="cls-4" cx="105" cy="129" r="1"/><circle id="타원_1283-28" data-name="타원 1283-28" class="cls-4" cx="109" cy="129" r="1"/><circle id="타원_1283-29" data-name="타원 1283-29" class="cls-4" cx="113" cy="129" r="1"/><circle id="타원_1283-30" data-name="타원 1283-30" class="cls-4" cx="117" cy="129" r="1"/><circle id="타원_1283-31" data-name="타원 1283-31" class="cls-4" cx="121" cy="129" r="1"/><circle id="타원_1283-32" data-name="타원 1283-32" class="cls-4" cx="125" cy="129" r="1"/><circle id="타원_1283-33" data-name="타원 1283-33" class="cls-4" cx="129" cy="129" r="1"/><circle id="타원_1283-34" data-name="타원 1283-34" class="cls-4" cx="133" cy="129" r="1"/><circle id="타원_1283-35" data-name="타원 1283-35" class="cls-4" cx="137" cy="129" r="1"/><circle id="타원_1283-36" data-name="타원 1283-36" class="cls-4" cx="141" cy="129" r="1"/><circle id="타원_1283-37" data-name="타원 1283-37" class="cls-4" cx="145" cy="129" r="1"/><circle id="타원_1283-38" data-name="타원 1283-38" class="cls-4" cx="149" cy="129" r="1"/><circle id="타원_1283-39" data-name="타원 1283-39" class="cls-4" cx="153" cy="129" r="1"/><circle id="타원_1283-40" data-name="타원 1283-40" class="cls-4" cx="157" cy="129" r="1"/><circle id="타원_1283-41" data-name="타원 1283-41" class="cls-4" cx="161" cy="129" r="1"/><circle id="타원_1283-42" data-name="타원 1283-42" class="cls-4" cx="165" cy="129" r="1"/><circle id="타원_1283-43" data-name="타원 1283-43" class="cls-4" cx="169" cy="129" r="1"/><circle id="타원_1283-44" data-name="타원 1283-44" class="cls-4" cx="173" cy="129" r="1"/><circle id="타원_1283-45" data-name="타원 1283-45" class="cls-4" cx="177" cy="129" r="1"/><circle id="타원_1283-46" data-name="타원 1283-46" class="cls-4" cx="181" cy="129" r="1"/><circle id="타원_1283-47" data-name="타원 1283-47" class="cls-4" cx="185" cy="129" r="1"/><circle id="타원_1283-48" data-name="타원 1283-48" class="cls-4" cx="189" cy="129" r="1"/><circle id="타원_1283-49" data-name="타원 1283-49" class="cls-4" cx="193" cy="129" r="1"/><circle id="타원_1283-50" data-name="타원 1283-50" class="cls-4" cx="197" cy="129" r="1"/><circle id="타원_1283-51" data-name="타원 1283-51" class="cls-4" cx="201" cy="129" r="1"/><circle id="타원_1283-52" data-name="타원 1283-52" class="cls-4" cx="205" cy="129" r="1"/><circle id="타원_1283-53" data-name="타원 1283-53" class="cls-4" cx="209" cy="129" r="1"/><circle id="타원_1283-54" data-name="타원 1283-54" class="cls-4" cx="213" cy="129" r="1"/><circle id="타원_1283-55" data-name="타원 1283-55" class="cls-4" cx="217" cy="129" r="1"/><circle id="타원_1283-56" data-name="타원 1283-56" class="cls-4" cx="221" cy="129" r="1"/><circle id="타원_1283-57" data-name="타원 1283-57" class="cls-4" cx="225" cy="129" r="1"/><circle id="타원_1283-58" data-name="타원 1283-58" class="cls-4" cx="229" cy="129" r="1"/><circle id="타원_1283-59" data-name="타원 1283-59" class="cls-4" cx="233" cy="129" r="1"/><circle id="타원_1283-60" data-name="타원 1283-60" class="cls-4" cx="237" cy="129" r="1"/><circle id="타원_1283-61" data-name="타원 1283-61" class="cls-4" cx="241" cy="129" r="1"/><circle id="타원_1283-62" data-name="타원 1283-62" class="cls-4" cx="245" cy="129" r="1"/><circle id="타원_1283-63" data-name="타원 1283-63" class="cls-4" cx="249" cy="129" r="1"/><circle id="타원_1283-64" data-name="타원 1283-64" class="cls-4" cx="253" cy="129" r="1"/><circle id="타원_1283-65" data-name="타원 1283-65" class="cls-4" cx="257" cy="129" r="1"/><circle id="타원_1283-66" data-name="타원 1283-66" class="cls-4" cx="261" cy="129" r="1"/><circle id="타원_1283-67" data-name="타원 1283-67" class="cls-4" cx="265" cy="129" r="1"/><circle id="타원_1283-68" data-name="타원 1283-68" class="cls-4" cx="269" cy="129" r="1"/><circle id="타원_1283-69" data-name="타원 1283-69" class="cls-4" cx="273" cy="129" r="1"/><circle id="타원_1283-70" data-name="타원 1283-70" class="cls-4" cx="277" cy="129" r="1"/><circle id="타원_1283-71" data-name="타원 1283-71" class="cls-4" cx="281" cy="129" r="1"/><circle id="타원_1283-72" data-name="타원 1283-72" class="cls-4" cx="285" cy="129" r="1"/><circle id="타원_1283-73" data-name="타원 1283-73" class="cls-4" cx="289" cy="129" r="1"/><circle id="타원_1283-74" data-name="타원 1283-74" class="cls-4" cx="293" cy="129" r="1"/><circle id="타원_1283-75" data-name="타원 1283-75" class="cls-4" cx="297" cy="129" r="1"/><circle id="타원_1283-76" data-name="타원 1283-76" class="cls-4" cx="301" cy="129" r="1"/><circle id="타원_1283-77" data-name="타원 1283-77" class="cls-4" cx="305" cy="129" r="1"/><circle id="타원_1283-78" data-name="타원 1283-78" class="cls-4" cx="309" cy="129" r="1"/><circle id="타원_1283-79" data-name="타원 1283-79" class="cls-4" cx="313" cy="129" r="1"/><circle id="타원_1283-80" data-name="타원 1283-80" class="cls-4" cx="317" cy="129" r="1"/><circle id="타원_1283-81" data-name="타원 1283-81" class="cls-4" cx="321" cy="129" r="1"/><circle id="타원_1283-82" data-name="타원 1283-82" class="cls-4" cx="325" cy="129" r="1"/><circle id="타원_1283-83" data-name="타원 1283-83" class="cls-4" cx="329" cy="129" r="1"/><circle id="타원_1283-84" data-name="타원 1283-84" class="cls-4" cx="333" cy="129" r="1"/><circle id="타원_1283-85" data-name="타원 1283-85" class="cls-4" cx="337" cy="129" r="1"/><circle id="타원_1283-86" data-name="타원 1283-86" class="cls-4" cx="341" cy="129" r="1"/><circle id="타원_1283-87" data-name="타원 1283-87" class="cls-4" cx="345" cy="129" r="1"/><circle id="타원_1283-88" data-name="타원 1283-88" class="cls-4" cx="349" cy="129" r="1"/><circle id="타원_1283-89" data-name="타원 1283-89" class="cls-4" cx="353" cy="129" r="1"/><circle id="타원_1283-90" data-name="타원 1283-90" class="cls-4" cx="357" cy="129" r="1"/><circle id="타원_1283-91" data-name="타원 1283-91" class="cls-4" cx="361" cy="129" r="1"/><circle id="타원_1283-92" data-name="타원 1283-92" class="cls-4" cx="365" cy="129" r="1"/><circle id="타원_1283-93" data-name="타원 1283-93" class="cls-4" cx="369" cy="129" r="1"/><circle id="타원_1283-94" data-name="타원 1283-94" class="cls-4" cx="373" cy="129" r="1"/><circle id="타원_1283-95" data-name="타원 1283-95" class="cls-4" cx="377" cy="129" r="1"/><circle id="타원_1283-96" data-name="타원 1283-96" class="cls-4" cx="381" cy="129" r="1"/><circle id="타원_1283-97" data-name="타원 1283-97" class="cls-4" cx="385" cy="129" r="1"/></g></g><path id="사각형_2752-2" data-name="사각형 2752-2" class="cls-6" d="M150,66h98a62,62,0,0,1,62,62h0a62,62,0,0,1-62,62H150a62,62,0,0,1-62-62h0A62,62,0,0,1,150,66Z"/><path id="패스_375" data-name="패스 375" class="cls-7" d="M179.42,147.51l-1.53,5.38-3.69,4.57-2.88,4.39-3.24,1.43s-10.62,5.2-10.89,5.2-8.54,3.85-8.54,3.85l-6.48,3.86-6.66,4.21-5.22,4.3-5,5.73H263.19c-.44,0-3.68-4.5-3.68-4.5l-6.83-5.67-9-5.5-13-6.8-8.59-4.18-5.26-1.93-1.92-3.48-2.54-4L210,150.78v-2.09Z"/><path id="패스_376" data-name="패스 376" class="cls-8" d="M232.83,113c-1.67-9.49-8.74-7.85-8.77-7.86s-.38-1-1.65-19.78l-9.5-13.56-18.66-.42-18.65.42-9.49,13.56c-1.27,18.74-1.65,19.78-1.65,19.78s-7.1-1.63-8.78,7.86,11.22,14.9,11.22,14.9c9.92,24.64,23.23,25.65,27.35,25.3,4.13.34,17.44-.66,27.36-25.3C221.61,127.9,234.51,122.5,232.83,113Z"/><path id="패스_377" data-name="패스 377" class="cls-9" d="M194.75,164.55l-1.72.09-2.9,3.09-1.06,1.84.43,5.94.35,5.47L188,190.47h12.38l-1.28-6.4-1.1-5.76,1-4.42.54-6-3.74-3.61Z"/><path id="패스_378" data-name="패스 378" class="cls-10" d="M189,139.62a12.24,12.24,0,0,0,10.6,0"/><circle id="타원_2308" data-name="타원 2308" class="cls-11" cx="179.93" cy="111.48" r="3.46"/><circle id="타원_2309" data-name="타원 2309" class="cls-11" cx="194.26" cy="128.25" r="1.26"/><circle id="타원_2310" data-name="타원 2310" class="cls-11" cx="208.78" cy="111.48" r="3.46"/><path id="패스_379" data-name="패스 379" class="cls-10" d="M125.88,190.22s7.38-13.1,45.72-28.18"/><path id="패스_380" data-name="패스 380" class="cls-10" d="M263.59,190.22s-7.38-13.1-45.72-28.18"/><path id="패스_381" data-name="패스 381" class="cls-10" d="M178.09,152.31s-6.55,8.83-6.49,9.73,7,11.06,11.13,14.75c0,0,7.82-10.3,10.75-12.53Z"/><path id="패스_382" data-name="패스 382" class="cls-10" d="M211.38,152.31s6.55,8.83,6.49,9.73-7,11.06-11.13,14.75c0,0-7.82-10.3-10.75-12.53Z"/><path id="패스_383" data-name="패스 383" class="cls-10" d="M178.09,152.31a22.5,22.5,0,0,0,1.48-4.81"/><path id="패스_384" data-name="패스 384" class="cls-10" d="M209.79,147.29a10.83,10.83,0,0,0,1.62,5"/><path id="패스_385" data-name="패스 385" class="cls-10" d="M189.4,168.49s-.19,8.11,1,10.33h4.33"/><path id="패스_386" data-name="패스 386" class="cls-10" d="M199.08,167.36s.18,9-1,11.46h-4.32"/><path id="패스_387" data-name="패스 387" class="cls-12" d="M190.49,179.27a99.47,99.47,0,0,0-2,10.55"/><path id="패스_388" data-name="패스 388" class="cls-10" d="M198,179.27a97,97,0,0,1,2,10.55"/><path id="패스_389" data-name="패스 389" class="cls-13" d="M176,100.8s3.9-2,7.16,0"/><path id="패스_390" data-name="패스 390" class="cls-13" d="M205.32,100.8s3.9-2,7.17,0"/><path id="패스_391" data-name="패스 391" class="cls-1" d="M223.3,92.79c-1.2-5.31-7.85-17.85-17.42-14.11s-11.62,4.6-27,1c-14.93-3.48-12.37,21.2-12.22,22.58v.12a45.14,45.14,0,0,0,2.45,16h53C225.12,106.7,224.07,96.19,223.3,92.79Z"/><g id="그룹_845" data-name="그룹 845"><path id="패스_392" data-name="패스 392" class="cls-14" d="M190.81,111a5.76,5.76,0,0,1,6.82,0"/><path id="패스_393" data-name="패스 393" class="cls-15" d="M170,106.45c4-2.11,12.78-3.42,18.65-.39,4.24,2.19,2.21,13.76-3.64,15.9-5.18,1.9-11.06,1.45-14.06-2S166.25,108.45,170,106.45Z"/><path id="패스_394" data-name="패스 394" class="cls-15" d="M218.54,106.45c-3.95-2.11-12.78-3.42-18.66-.39-4.23,2.19-2.2,13.76,3.65,15.9,5.18,1.9,11.05,1.45,14.05-2S222.27,108.45,218.54,106.45Z"/></g><path id="패스_395" data-name="패스 395" class="cls-11" d="M202.6,60.35c-5.49-6.84-35,2.21-41.33,19.52-2.89,7.85-1.44,18.36,2.31,18.28s34.51-4,39.3-18.7C205.82,70.39,206.1,64.71,202.6,60.35Z"/><path id="패스_396" data-name="패스 396" class="cls-11" d="M204.76,62.77S214.32,57.65,223,68c10.75,12.85,6.21,29.18,1.36,28.44-3.87-.6-5-1.2-8.72-3.52C197.34,81.44,198.46,67.69,204.76,62.77Z"/><path id="패스_397" data-name="패스 397" class="cls-11" d="M161.44,94.6s2,8.79,3.31,15a.65.65,0,0,0,.8.48.69.69,0,0,0,.5-.59c.35-5.91.86-15.3.68-17.09C166.46,89.78,160.92,92.39,161.44,94.6Z"/><path id="패스_398" data-name="패스 398" class="cls-11" d="M227.33,94.6s-2,8.79-3.3,15a.66.66,0,0,1-1.3-.11c-.36-5.91-.87-15.3-.69-17.09C222.31,89.78,227.86,92.39,227.33,94.6Z"/><circle id="타원_2565-2" data-name="타원 2565-2" class="cls-16" cx="121" cy="47" r="10"/><circle id="타원_2574-2" data-name="타원 2574-2" class="cls-16" cx="117" cy="36" r="6"/><circle id="타원_2575-2" data-name="타원 2575-2" class="cls-16" cx="306" cy="185" r="5"/><circle id="타원_2576-2" data-name="타원 2576-2" class="cls-16" cx="294.5" cy="182.5" r="6.5"/><circle id="타원_2596-2" data-name="타원 2596-2" class="cls-16" cx="231.5" cy="242.5" r="6.5"/><circle id="타원_2597-2" data-name="타원 2597-2" class="cls-16" cx="244" cy="223" r="6"/><circle id="타원_2609-2" data-name="타원 2609-2" class="cls-17" cx="225.5" cy="119.5" r="11.5"/><circle id="타원_2627-2" data-name="타원 2627-2" class="cls-17" cx="232.5" cy="137.5" r="17.5"/><circle id="타원_2606-2" data-name="타원 2606-2" class="cls-17" cx="169.5" cy="145.5" r="6.5"/><circle id="타원_2607-2" data-name="타원 2607-2" class="cls-17" cx="173.5" cy="137.5" r="6.5"/><circle id="타원_2608-2" data-name="타원 2608-2" class="cls-17" cx="169.5" cy="137.5" r="6.5"/><circle id="타원_2603-2" data-name="타원 2603-2" class="cls-16" cx="322" cy="34" r="6"/><circle id="타원_2598-2" data-name="타원 2598-2" class="cls-16" cx="294.5" cy="222.5" r="6.5"/><circle id="타원_2566-2" data-name="타원 2566-2" class="cls-16" cx="273" cy="81" r="21"/><circle id="타원_2567-2" data-name="타원 2567-2" class="cls-16" cx="254" cy="58" r="21"/><circle id="타원_2568-2" data-name="타원 2568-2" class="cls-16" cx="36" cy="219" r="10"/><circle id="타원_2569-2" data-name="타원 2569-2" class="cls-16" cx="40" cy="208" r="9"/><circle id="타원_2572-2" data-name="타원 2572-2" class="cls-16" cx="311" cy="42" r="14"/><circle id="타원_2604-2" data-name="타원 2604-2" class="cls-16" cx="332.5" cy="46.5" r="13.5"/><circle id="타원_2602-2" data-name="타원 2602-2" class="cls-16" cx="322" cy="46" r="9"/><circle id="타원_2599-2" data-name="타원 2599-2" class="cls-16" cx="253" cy="37" r="9"/><circle id="타원_2605-2" data-name="타원 2605-2" class="cls-16" cx="340" cy="33" r="9"/><circle id="타원_2600-2" data-name="타원 2600-2" class="cls-16" cx="288" cy="45" r="9"/><circle id="타원_2601-2" data-name="타원 2601-2" class="cls-16" cx="319" cy="39" r="9"/><circle id="타원_2573-2" data-name="타원 2573-2" class="cls-16" cx="360" cy="46" r="9"/><circle id="타원_2570-2" data-name="타원 2570-2" class="cls-16" cx="54" cy="224" r="13"/><circle id="타원_2571-2" data-name="타원 2571-2" class="cls-16" cx="340.5" cy="213.5" r="12.5"/></g></g></svg>