<svg xmlns="http://www.w3.org/2000/svg" viewBox="0 0 37.34 42.77"><defs><style>.cls-1{fill:#000d22;}.cls-2{fill:#fff;}</style></defs><g id="레이어_2" data-name="레이어 2"><g id="레이어_1-2" data-name="레이어 1"><polyline class="cls-1" points="15.58 35.37 15.58 30.95 18.68 30.95 18.68 35.6"/><polygon class="cls-1" points="19.68 35.6 17.68 35.6 17.68 31.95 16.58 31.95 16.58 35.37 14.58 35.37 14.58 29.95 19.68 29.95 19.68 35.6"/><path class="cls-2" d="M9.49,33.27h4.25a8.49,8.49,0,0,1,8.49,8.49v0a0,0,0,0,1,0,0H1a0,0,0,0,1,0,0v0A8.49,8.49,0,0,1,9.49,33.27Z"/><path class="cls-1" d="M23.23,42.77H0v-1a9.51,9.51,0,0,1,9.49-9.5h4.25a9.51,9.51,0,0,1,9.49,9.5Zm-21.16-2h19.1a7.51,7.51,0,0,0-7.43-6.5H9.49A7.5,7.5,0,0,0,2.07,40.77Z"/><path class="cls-1" d="M12.62,33.27h-2V13.21a11.06,11.06,0,0,1,2.55-7.72c1.8-1.95,4.4-2.94,7.74-2.94h6.22v2H20.91c-2.76,0-4.86.77-6.27,2.29a9.24,9.24,0,0,0-2,6.29Z"/><rect class="cls-2" x="27.13" y="1" width="9.21" height="5.1" rx="2.55"/><path class="cls-1" d="M33.79,7.1H29.68a3.55,3.55,0,0,1,0-7.1h4.11a3.55,3.55,0,1,1,0,7.1ZM29.68,2a1.55,1.55,0,0,0,0,3.1h4.11a1.55,1.55,0,1,0,0-3.1Z"/><line class="cls-1" x1="22.23" y1="41.77" x2="36.34" y2="41.77"/><path class="cls-1" d="M36.34,42.77H22.23a1,1,0,1,1,0-2H36.34a1,1,0,0,1,0,2Z"/></g></g></svg>